<svg width="256" height="285" fill="none" xmlns="http://www.w3.org/2000/svg"><ellipse cx="128.544" cy="155.323" rx="127.456" ry="129.677" fill="#E0EAE2"/><ellipse cx="128.544" cy="155.323" rx="115.853" ry="117.757" fill="#E2E8E3"/><path d="M14.86 164.514c.164.03.299-.122.284-.274-.015-.259-.15-.472-.3-.472-.15-.015-.329.259-.284.472a.32.32 0 0 0 .3.274ZM16.011 161.106c-.12.305-.06.594.135.853.015.03.105.015.135-.016.284-.213.194-.7-.15-.882-.045.015-.105.015-.12.045ZM15.04 161.057c-.044-.03-.074-.091-.12-.091-.224-.061-.433-.061-.598.122-.06.046-.045.167-.03.259 0 .045.075.091.12.091.24.03.42-.091.584-.228.03-.031.03-.107.045-.153ZM15.247 165.544c.073-.045.103-.135.132-.224-.059-.06-.102-.134-.161-.209-.059.06-.161.12-.176.194-.044.164.103.313.205.239Z" fill="#A1B6A5"/><mask id="a" style="mask-type:luminance" maskUnits="userSpaceOnUse" x="91" y="60" width="154" height="192"><path d="M91.513 60.701H244.28v190.92H91.513V60.701Z" fill="#fff"/></mask><g mask="url(#a)"><path d="M237.905 117.029c-.03.076-.06.152-.09.213-.03-.092-.075-.168-.105-.274-.03-.092-.045-.198-.06-.289 0-.046.045-.122.075-.122.12-.031.18.03.18.167v.305Zm-7.724 4.627-.015-.077.06.077.075.015-.12-.015Zm-.584 2.069c0 .046-.03.092-.06.153-.06.137-.135.152-.239.045-.03-.03-.045-.076-.075-.137.015-.045.015-.091.03-.152.075-.198.299-.335.329-.213.03.091.015.198.015.304Zm-.689-3.987c-.119.122-.344.106-.404-.046a1.293 1.293 0 0 1-.089-.456c.015-.092.119-.183.194-.229.12-.091.329-.015.404.152.045.092.045.214.06.305-.06.091-.09.198-.165.274Zm-8.591 5.19c-.105.152-.285.228-.42.167-.493-.198-.972-.426-1.451-.639-.195-.091-.255-.243-.18-.533.03-.152 0-.38.105-.441.164-.107.239.107.314.213.225.32.509.533.898.624.255.061.479.213.719.335.03.03.03.091.059.122-.014.045-.029.121-.044.152Zm-12.02 3.577c-.329.365-.509.791-.644 1.263-.015.076-.134.137-.224.182-.09.046-.285-.152-.3-.319 0-.046-.015-.107-.015-.137-.03-.472.06-.868.39-1.203.179-.182.359-.395.568-.547.105-.092.3-.107.449-.107.06 0 .18.152.165.183-.105.243-.209.502-.389.685Zm-.374-16.666c.015 0 .045.076.06.121-.03.016-.075.077-.105.077a.952.952 0 0 1-.3-.016c-.03 0-.059-.045-.089-.076.149-.045.284-.091.434-.106Zm-6.676-37.7c-.135.167-.285.228-.33.091-.015-.046-.029-.091-.015-.137.06-.167.195-.274.33-.198.03 0 .045.061.075.107-.03.045-.03.091-.06.137Zm-.809 64.319-.029-.121.104.015-.075.106Zm-2.38-56.298c-.044-.016-.119-.046-.119-.076 0-.122.06-.122.149-.016 0 .03-.015.061-.03.092Zm-.464-1.34c-.015.03-.074.046-.104.061-.33-.609-.839-1.096-1.228-1.659-.03-.03-.03-.122 0-.137.075-.06.18-.152.255-.121.194.045.404.121.554.243.239.213.434.472.628.73.15.183.105.625-.105.883Zm-6.765 51.718c-.105.289-.644.548-.943.472a7.76 7.76 0 0 1-1.048-.35c-.24-.076-.27-.32-.299-.533-.135-1.035.958-1.994 1.886-1.903.224.031.404.107.494.335.104.244.194.487.299.731-.135.441-.255.852-.389 1.248Zm-2.725-55.903-.089-.061.104-.03-.015.09Zm-3.547 69.312-2.066.228c-.149.03-.314.03-.479.046-.748-.076-1.497-.137-2.065-.761-.18-.198-.434-.305-.704-.35-.209-.031-.419-.061-.614-.137-.149-.061-.314-.168-.374-.29-.314-.7-.584-1.4-.269-2.191.134-.35.269-.716.314-1.096.06-.548.344-.883.764-1.157.104-.076.089-.198 0-.289-.075-.076-.15-.152-.255-.183-.539-.213-.943-.563-1.167-1.065-.255-.578-.644-1.005-1.123-1.355a3.126 3.126 0 0 1-1.302-2.009c-.135-.715-.464-1.309-1.018-1.765-.285-.228-.33-.548-.24-.898.09-.305.18-.609.3-.913a.928.928 0 0 1 .539-.579c.568-.198 1.062-.502 1.392-1.035.089-.137.224-.243.359-.335a112.64 112.64 0 0 1 1.796-1.065c.135-.061.344-.122.464-.061.509.229 1.003.259 1.542.168.284-.046.494.167.628.426.12.259.21.502.165.791-.03.32-.105.639-.135.959-.015.198-.119.289-.284.305-.269.03-.539.03-.808.045-.689.061-.868.305-.794 1.096.03.38.03.38-.254.472-.06.015-.12.015-.165.03-.464.152-.524.259-.269.503.374.319.688.7.913 1.126.389.776 1.003 1.248 1.796 1.491.24.061.359.229.359.457 0 .122-.03.228-.045.335-.044.502.045.974.36 1.385.359.456.464.959.374 1.537a1.91 1.91 0 0 0 .075.639c.09.32.269.594.643.609.165.015.33.015.434.152.105.168.03.305-.029.457-.015.046-.045.122-.03.152.104.137.209.274.314.365.389.274.584.655.554 1.127-.045.837.299 1.583.539 2.359.03.122-.015.258-.135.274Zm-10.732-32.449.029-.122.045.046-.074.076Zm-6.482 25.402c-.179.106-.344.228-.524.35-.344.198-.688.32-1.077.167-.479-.167-.958-.091-1.422.076-.315.107-.629.077-.928-.03-.629-.213-1.228-.396-1.842-.609-.134-.045-.254-.167-.389-.274-.09-.061-.164-.182-.239-.182-.584-.077-1.123-.335-1.692-.427-1.062-.182-2.125.046-3.143.411-.404.137-.734.442-1.003.777-.195.228-.434.334-.718.243-.584-.198-1.168-.076-1.752-.091-.808-.015-1.452-.35-1.781-1.126-.12-.259-.254-.488-.344-.746a.839.839 0 0 1-.015-.472c.09-.365.134-.761.434-1.035.299-.259.449-.578.449-1.005 0-.319.03-.639.075-.958a.558.558 0 0 1 .374-.487c.404-.137.584-.427.614-.853.03-.213.119-.426.224-.609.329-.487.689-.958 1.048-1.445.135-.198.479-.259.733-.153.03.031.105.031.135.061a2.726 2.726 0 0 0 1.886.731c.165 0 .255.258.15.365-.135.167-.3.304-.434.472-.105.122-.06.319.09.411.089.045.194.076.284.122.329.137.479.38.539.745.105.426.464.609.838.457a2.33 2.33 0 0 0 .434-.213c.285-.137.584-.259.853-.442.39-.243.794-.319 1.228-.35.09 0 .179-.076.284-.121.12-.061.18-.259.15-.427a.351.351 0 0 0-.329-.289c-.06.016-.105.016-.165.016-1.198.152-1.213.152-1.916-.822l-.09.03.06-.076c.015.03.03.03.03.046.434-.503.913-.883 1.587-.974a2.05 2.05 0 0 0 .988-.457c.553-.487 1.212-.609 1.915-.533.09.015.165.015.255.015l.03-.03.09-.061-.06.107c-.015-.016-.045-.016-.06-.016l-.763.777c-.18.182-.18.365-.075.578.075.152.104.32.015.472-.27.456-.464.959-.943 1.263-.045.031-.075.228-.03.289.299.457.643.822 1.212.974.674.183 1.272.564 1.766 1.096.614.624 1.348 1.05 2.126 1.431.793.396 1.168 1.096 1.212 1.979.03.334-.074.639-.374.852Zm-15.417 1.674c-.09.107-.24.198-.375.259-.089.03-.209 0-.314-.015a1.36 1.36 0 0 1-.284-.031h-.509c-.195 0-.359-.122-.3-.259.06-.137.12-.304.24-.38.434-.259.913-.198 1.392-.152.314.03.374.274.15.578Zm-2.156-38.141c.075-.381.255-.716.599-.913.06-.016.105-.031.15-.046.104.046.209.061.299.122.329.274.659.548 1.003.821.075.061.165.122.239.198.704.7.599 1.446-.284 1.949-.045.015-.09.06-.135.091-.254.137-.404.122-.554-.046-.508-.563-.853-1.248-1.257-1.872-.06-.091-.09-.213-.06-.304Zm.315-10.304c0 .03.015.03.015.06.029 0 .044.016.059.031-.015.061-.044.03-.059-.03-.015 0-.03-.016-.06-.03l-.045-.062.09.03Zm.254-4.658c.06-.045.105-.106.15-.167-.045.076-.09.152-.15.213.03.107 0 .122-.06.03 0 0 .045-.045.06-.076Zm3.428 9.178c.075.03.164.046.224.107.06.06.075.167.09.258 0 .016-.06.046-.105.077-.074-.061-.179-.107-.209-.183-.045-.076 0-.168 0-.259Zm1.781 29.025c-.03.015-.09.045-.12.015-.03 0-.045-.061-.075-.107.045-.015.09-.03.12-.015.03.031.045.076.075.107Zm-.958-25.418c.225-.045.419-.091.584-.243.06-.076.15-.153.209-.229.015.046.03.107.045.153.135.593.449 1.095.779 1.598.119.167.149.395.209.593-.09.168-.134.32-.239.442a.368.368 0 0 1-.255.167c-.105.031-.194-.046-.194-.167-.03-.472-.27-.807-.689-1.005-.359-.182-.569-.472-.688-.852-.075-.244-.015-.426.239-.457Zm3.967 28.051c-.015.03-.015.091-.045.091s-.06-.015-.105-.03c.015-.031.015-.077.045-.077s.06.016.105.016Zm-.255-24.109c.045 0 .105 0 .135.031.12.091.105.167-.045.198a.205.205 0 0 1-.12-.077c-.015-.045.015-.091.03-.152Zm.988 2.922c.015.016.03.031.045.031h.135c0 .03 0 .046-.015.076l.748.761c.105.122.045.365-.09.426-.284.107-.508 0-.703-.213a.328.328 0 0 1-.075-.411.35.35 0 0 0 .045-.167c.03-.122.06-.259.075-.396 0-.015-.015-.03-.03-.046-.03 0-.06-.015-.09-.03-.06 0-.135 0-.165-.046-.074-.076 0-.091.12.015Zm1.108 91.64c.404-.046.688.198.913.533.045.076.075.213.045.289-.21.624-.554 1.157-.988 1.644-.135.167-.24.35-.225.593.015.092 0 .229-.059.29-.105.091-.27.152-.42.197a.643.643 0 0 1-.299 0c-.105 0-.21-.03-.314-.045-.21.015-.419.045-.629.03-.075-.015-.15-.137-.18-.228a.769.769 0 0 1-.015-.32 6.468 6.468 0 0 0 .195-1.933c-.015-.152.03-.335.09-.471.06-.122.194-.29.314-.32a17.7 17.7 0 0 1 1.572-.259Zm-.389-1.705.104.061-.119.031.015-.092Zm1.556 16.332c.075.319.09.639.225.928.18.426.18.837.045 1.263-.195.411-.195.822-.075 1.248.09.32.15.64.195.959.015.091 0 .259-.06.289-.09.061-.165-.045-.225-.152-.344-.563-.509-1.187-.629-1.811-.044-.198-.044-.457.03-.639.21-.579.21-1.157.09-1.751-.06-.304-.045-.639-.06-.958 0-.046.045-.092.06-.153.09.061.225.092.255.168.075.182.09.395.149.609Zm-3.143-55.097c0 .031.015.046.03.061.03 0 .06.015.06.015 0 .076-.03.061-.06-.015-.03-.015-.06-.015-.075-.015l.045-.046Zm.659.822c.045.03.089.046.119.076.015.031-.03.091-.03.122-.044-.031-.104-.046-.119-.091-.015-.016.015-.061.03-.107Zm6.391 23.211c.075.015.15.045.24.076 0 .121-.045.213-.15.182-.075-.015-.12-.106-.18-.167.03-.031.06-.091.09-.091Zm-8.367 14.261-.03.076v-.107l.105-.015-.075.046Zm-.33 13.911a.281.281 0 0 1-.149-.046c-.195-.198-.18-.441-.12-.685-.015-.015-.015-.015-.03-.015v-.076c-.269-.183-.254-.548-.479-.746-.224-.228-.479-.441-.673-.685-.165-.198-.345-.456-.375-.7-.089-.959-.419-1.902-.359-2.877.015-.06.135-.182.18-.167.09 0 .239.076.254.152.15.64.27 1.264.389 1.903-.179.639 0 1.141.569 1.537.255.183.359.517.404.837.03.259.06.502.09.746.015 0 .015.015.045.046-.015 0-.015.03-.015.045.255.122.314.365.359.624 0 .031-.06.092-.09.107Zm-1.601 3.5c-.03.031-.03.061-.045.076-.015.061-.015.122-.015.168-.03 0-.045 0-.075-.015.03-.046.06-.092.09-.153v-.091l.105-.03-.06.045Zm-1.123-2.678a.773.773 0 0 1-.254.121s-.06-.076-.06-.106c.045-.183.179-.305.299-.274.03.015.045.076.075.122-.03.045-.03.106-.06.137Zm.704-9.726-.045.107-.045-.107h.09Zm-1.557 20.167c-.09-.077-.06-.122.075-.122l.045.091c-.045.015-.105.046-.12.031Zm-4.446 19.953.015-.076.105.061-.12.015Zm-32.122-53.209c-.03.137-.12.167-.224.106-.03-.03-.03-.091-.03-.137.03-.121.104-.152.209-.091.03.015.045.091.045.122Zm-1.018-1.005-.045-.061c-.045-.045-.09-.076-.149-.121a.312.312 0 0 0 .194.076v.106Zm-.404-.35.045-.045c.03.076.075.121.12.167a.648.648 0 0 1-.165-.122Zm32.571-77.622-.059-.106.104.076.06.091-.105-.061Zm-.523-1.263c-.015.046-.075.091-.12.107-.105.03-.195-.031-.24-.153-.06-.152-.06-.304.06-.441.03-.031.09-.015.135-.015.209.091.284.304.165.502Zm1.302-8.173c-.015-.046-.045-.091-.045-.137 0-.03.045-.076.075-.107.03.046.06.092.045.137 0 .031-.045.061-.075.107Zm-.06-1.964c-.12-.06-.24-.136-.359-.213.015-.03.045-.076.075-.076.089.016.194.03.284.061.03.015.06.091.075.122-.015.046-.06.106-.075.106Zm-.778 3.714c-.09.122-.195.244-.12.426.06.152.149.335-.06.396-.12.03-.299-.061-.434-.137-.18-.107-.225-.396-.075-.548.18-.198.389-.365.584-.533a.251.251 0 0 1 .149 0c.045.016.06.077.105.107-.06.091-.09.183-.149.289Zm-.45-1.4-.029.091-.105-.061.134-.03Zm-1.586-4.673c-.075.061-.195.137-.255.107a.88.88 0 0 1-.299-.32c-.03-.045.075-.167.12-.258.224 0 .344.167.464.334.015.03 0 .122-.03.137Zm-.793 3.547a.683.683 0 0 1-.135-.046c-.15-.046-.33-.015-.344-.228 0-.016.089-.061.119-.046.105.015.195.076.285.122.045.015.104.03.134.06.03.031.06.077.075.122-.045 0-.09.016-.134.016Zm-.584-14.962c.045-.137.164-.228.254-.35 0-.015-.015-.03-.03-.06l.105-.062-.06.107-.015.015c.045.137.12.259.135.396 0 .06-.105.167-.18.228-.03.016-.119.016-.134 0-.045-.091-.105-.213-.075-.274Zm-.255 17.305.06-.121.045.137-.105-.016Zm-2.679-21.353c-.015.03-.015.046-.03.06-.03.031-.03.062-.045.107 0 .198-.015.426-.015.624 0 .046-.045.076-.075.122-.015-.046-.075-.076-.075-.122 0-.228.045-.441.165-.624v-.152c.045 0 .045-.015.075-.015a.332.332 0 0 0 .045-.076c.06.045.03.06-.045.076Zm-2.26.76c0 .016-.03.016-.03.031-.03.092-.015.213-.18.213-.015 0-.045-.106-.03-.121.075-.046.135-.061.21-.092 0-.03 0-.045.015-.06l.03-.062-.015.092Zm-1.647 1.036c-.06.06-.164.076-.254.091-.045.03-.12 0-.15-.03-.045-.061-.12-.168-.105-.244.015-.06.15-.137.225-.122.179.016.344.229.284.305Zm-2.5 24.565c.015-.031.09-.046.135-.031.105.016.195.046.3.077-.015.06-.015.137-.03.137a.908.908 0 0 1-.285 0c-.15-.016-.194-.107-.12-.183Zm-2.619 2.405c0 .03 0 .061-.015.076a.454.454 0 0 1-.06.121c-.015.031-.03.077-.045.107.03-.091.06-.167.075-.259.015-.015.015-.03.045-.045 0-.092-.015-.213.105-.274.015.045.045.091.045.106-.06.061-.105.122-.15.168Zm-1.033-.853c-.03.289-.209.518-.494.548-.239.031-.494.031-.733.046v.03a.314.314 0 0 1-.06.076c.015-.03.015-.076.015-.106h.045c-.03-.365 0-.715.434-.868.105-.045.149-.258.224-.395.12-.213.285-.29.36-.198.089.122.179.259.209.395.03.153 0 .32 0 .472Zm-4.206-9.984.015-.076.09.06-.105.016Zm117.218 56.695v-.214c-.03-4.9-.344-9.756-.958-14.504a119.92 119.92 0 0 0-3.712-18.036 118.637 118.637 0 0 0-6.496-17.305 117.34 117.34 0 0 0-8.982-15.86 116.994 116.994 0 0 0-15.297-18.385c-.3-.29-.599-.594-.898-.883a118.376 118.376 0 0 0-8.712-7.564.444.444 0 0 0-.21.091c-.494.426-1.107.609-1.691.883-.584.259-1.183.487-1.796.67-.21.06-.419.121-.614.197-.584.229-.748.7-.449 1.31.12.228.269.471.449.669.24.29.434.609.509 1.005.03.197.12.426.239.593.12.168.285.335.464.426.39.198.839.122 1.258.153.359.334.688.67 1.048.989.074.06.194.076.299.106.239.107.494.213.733.32.195.091.36.243.42.472.104.7.314 1.37.733 1.963.105.152-.015.305-.165.396l-.539.32c.015.015.015.03.03.045-.03.046-.059.091-.059.122 0-.046.015-.107.029-.152v-.016a.877.877 0 0 0-.134-.228c-.449-.563-.584-1.157-.225-1.811.045-.076.03-.213.045-.32.03-.304-.284-.67-.584-.639-.269.015-.524.061-.793.107-.494.106-.943.045-1.347-.32-.24-.213-.494-.426-.778-.563-.464-.228-.958-.487-1.467-.594-.524-.121-1.018-.32-1.527-.472a.52.52 0 0 0-.434.138 1.08 1.08 0 0 0-.404.852c0 .076.074.213.149.243.15.076.315.092.464.137l-.045-.045.06-.092-.015.137c.105.092.195.198.315.259.134.076.314.076.464.137.179.076.254.365.149.548-.089.167-.239.259-.389.213-.209-.046-.404-.152-.599-.243-.134-.061-.269-.183-.419-.198a.605.605 0 0 0-.568.258c-.075.122-.135.335-.09.442.284.624.688 1.096 1.362 1.309.359.106.718.213 1.093.228.149 0 .314.06.464.122a.263.263 0 0 1 .089.121c.045.107-.03.198-.149.153-.24-.122-.494-.213-.764-.183-.479.091-.973.046-1.452 0-.269-.03-.509-.137-.643-.41-.045-.092-.09-.199-.135-.29-.359-.548-.659-1.111-.704-1.796-.029-.548-.284-1.05-.613-1.492-.09-.121-.24-.213-.359-.304-.03-.03-.105-.015-.135 0-.045.015-.105.091-.09.122.12.41.269.822.389 1.233.09.334.06.654-.12.943-.059.092-.104.198-.179.274-.255.305-.404.624-.27 1.05.12.366-.119.792.12 1.111.21.305.524.548.793.807.195.183.39.365.599.533.315.274.464.593.479 1.004 0 .442 0 .868.075 1.31.12.821.629 1.476.943 2.221.075.213.314.274.539.26.434-.031.838-.107 1.138-.503.344-.426.763-.274 1.167-.061.045.015.105.06.105.122 0 .03-.06.076-.105.106-.434.32-.868.624-1.287.974-.374.32-.434.96-.135 1.34.18.213.389.38.539.609.239.32.344.7.194 1.08a3.846 3.846 0 0 0-.269 1.583c0 .274-.09.563-.224.776-.315.502-.689.96-.794 1.583-.015.061-.179.152-.254.137a38.692 38.692 0 0 1-1.916-.228c-.09-.015-.255-.061-.27-.122-.045-.152-.015-.304-.015-.457 0-.015-.015-.015-.015-.015-.119 0-.134-.03-.044-.106.029.045.044.06.059.091v.03c.135.061.27.137.419.198.539.229.943.046 1.153-.472.404-.974.584-1.993.748-3.013a.852.852 0 0 0-.059-.472c-.225-.396-.33-.791-.255-1.248.06-.29-.09-.533-.314-.7a18.12 18.12 0 0 1-.674-.472 1.751 1.751 0 0 1-.643-.898c-.42-1.233-.884-2.466-1.258-3.714-.224-.776-.584-1.385-1.227-1.841-.329-.228-.494-.563-.494-.974.015-1.096-.165-2.177-.434-3.227a.665.665 0 0 0-.404-.487c-.809-.29-1.632-.533-2.515-.213-.18.076-.419-.03-.629.015-.119.03-.284.198-.299.32-.06.259-.06.532-.045.806.03.868.075 1.75.12 2.618.015.442-.06.868-.374 1.218-.33.396-.435.837-.405 1.355.015.365.06.654.36.852.269.183.538.441.598.746.075.471.419.913.18 1.415-.045.091-.045.244 0 .32.239.426.479.852.733 1.263.015.046.195.015.255-.015.269-.168.524-.198.733.045.419.487.839.975 1.497 1.172.075.016.135.183.135.274.015.259 0 .533-.015.807-.015.183-.225.274-.359.183l-.943-.64c-.225-.152-.434-.32-.674-.426-.389-.182-.808-.304-1.212-.456-.345-.137-.674-.305-1.018-.457-.509.091-.734-.396-1.108-.563-.763-.35-1.512-.563-2.35-.411-.105.03-.209.06-.314.06-.928 0-1.811-.121-2.56-.775-.359-.305-.778-.564-1.182-.837-.105-.061-.345.03-.419.152-.015.045-.06.091-.075.152-.135.457 0 .837.374 1.141.404.35 1.018.35 1.347.838.045.076.195.09.299.121.225.03.405.152.539.32.3.38.599.776.883 1.157a.45.45 0 0 1-.044.593c-.315.274-.719.487-.824.944-.015.03-.105.076-.12.06-.074-.045-.194-.09-.224-.182-.075-.198-.075-.426-.165-.624-.104-.259-.449-.41-.658-.304-.375.167-.719.471-1.183.41-.045 0-.105.046-.12.077-.164.441-.508.532-.913.502-.389-.03-.793.106-1.017.396-.285.365-.719.441-1.063.684-.105.077-.3.031-.449.031 0-.107-.03-.198 0-.304.075-.457-.09-.822-.375-1.142-.359-.046-.628.061-.748.442-.015.09-.135.197-.209.197-.33-.015-.405.32-.629.427-.24.106-.509.152-.764.228-.389.091-.658.32-.913.624-.583.7-1.182 1.4-1.961 1.902-.194.122-.284.305-.329.533-.03.274-.075.548-.12.807a.718.718 0 0 1-.179.258c-.434.442-1.287.503-1.617.122-.194-.243-.449-.472-.658-.7-.21-.213-.21-.548.015-.73.254-.198.538-.35.793-.533.165-.122.194-.426.06-.579-.21-.258-.449-.471-.629-.745-.344-.503-.838-.685-1.392-.579-.434.076-.838.061-1.257-.015a.178.178 0 0 0-.135.076c-.09.076-.09.183.015.259.778.594 1.003 1.385.868 2.313a4.97 4.97 0 0 0-.045.655c0 .228.075.456.285.548.404.182.524.517.524.928 0 .213-.015.426-.045.64-.015.213-.27.425-.434.395-.315-.076-.644-.137-.943-.213-.465-.122-.839-.076-1.138.35a1.84 1.84 0 0 1-.554.578c-.314.229-.524.533-.748.838-.464.67-.779.928.045 1.826.074.076.134.183.179.274.09.228 0 .426-.12.609-.119.198-.374.32-.538.228-.749-.41-1.617-.563-2.306-1.142-.119-.09-.299-.09-.464-.136-.119-.046-.329.045-.389.182-.075.198-.149.411-.239.609a.632.632 0 0 0 .119.609c.315.38.674.715 1.213.715.105 0 .195.061.299.122.165.076.195.243.195.396 0 .258-.285.532-.539.487-.524-.092-1.048-.153-1.422-.64-.21-.274-.539-.335-.853-.41a.57.57 0 0 1-.419-.442c-.12-.472-.27-.928-.554-1.34-.195-.288-.165-.593-.135-.943.105-.807-.15-1.218-.883-1.522-.299-.137-.569-.228-.793-.502-.225-.274-.599-.411-.734-.776h-.06c0-.03-.03-.046-.03-.076a.367.367 0 0 1-.209-.214c-.03 0-.06-.03-.09-.03l-.015-.076.06.046c0 .03.03.045.045.06.105.03.179.107.209.214.015.015.045.03.075.03 0 .015.015.03.015.046.464 0 .898.167 1.332.334a16.72 16.72 0 0 0 3.533.99 4.39 4.39 0 0 0 2.679-.35c.135-.061.3-.137.404-.274.509-.548.914-1.203.988-1.994.03-.198 0-.457-.104-.624-.345-.472-.584-1.035-1.168-1.31-.239-.106-.434-.319-.629-.501a1.49 1.49 0 0 0-.823-.427c-.509-.076-1.003-.32-1.422-.684-.419-.35-.883-.64-1.332-.914-1.317-.791-1.692-.898-3.188-.898-.21 0-.419.107-.629.092-.269 0-.539-.03-.793-.092-.24-.045-.15-.213-.09-.365.06-.167.03-.35-.105-.441-.18-.137-.359-.228-.554-.335-.209-.091-.419-.091-.584.091-.239.259-.494.426-.853.274-.314-.122-.628-.091-.943-.03-.134.03-.299-.076-.419-.168-.075-.06-.105-.182-.135-.289-.03-.106.06-.167.195-.182.269 0 .524-.077.733-.244l.614-.533c.12-.091.075-.335-.075-.41-.688-.412-1.467-.655-2.215-.899-.12-.03-.299.107-.419.183-.09.06-.135.183-.195.274-.075.106-.149.152-.224.076-.03-.03-.045-.091-.045-.137 0-.152.015-.32.015-.487a.654.654 0 0 0-.449-.594c-.24-.076-.419.016-.584.168-.165.152-.284.32-.314.548-.015.152-.06.32-.135.456-.045.076-.165.122-.255.168-.015 0-.089-.061-.104-.122-.06-.274-.135-.502-.494-.487-.21.015-.21-.198-.24-.335-.09-.395-.434-.472-.569-.258-.284.41-.853.426-1.107.867-.434.06-.704.441-1.108.578-.045.016-.09.016-.135.016v.045l-.074.061.059-.091c0-.015.015-.015.015-.015a.348.348 0 0 0-.03-.244c-.044-.015-.074-.046-.134-.046-.674 0-.749.092-.584.7l.045.275h.045l.06.076-.105-.03v-.047c-.659-.03-1.183.32-1.736.564-.06.03-.06.198-.06.304.015.152.119.32.089.441-.044.198-.269.092-.404.137-.254.076-.509.153-.748.244l.03-.03h-.03c0-.153.03-.305.015-.442-.03-.183-.195-.274-.359-.29-.06 0-.195.138-.195.168.06.198.15.38.225.564h-.03l.045.015c-.465-.016-.779.167-.958.578h-.015c0 .03.119.168-.015.046 0-.016.015-.03.015-.046-.15.015-.3.015-.464.015-.285.03-.494.153-.599.457-.12.335-.12.64.194.867.075.077.18.122.24.198.12.122.09.29-.075.411-.165.122-.344.29-.569.183-.269-.122-.524-.076-.793-.03-.165.03-.314-.153-.255-.305.09-.259.18-.502.27-.761 0-.03-.045-.107-.09-.122-.03-.03-.105-.03-.12 0-.374.38-.748.761-1.107 1.172-.12.137 0 .305.089.426.165.213.105.396-.074.563-.075.061-.105.153-.15.244.195 0 .389.015.584-.015.359-.076.718-.213 1.092-.259.195-.03.42.03.629.06.03 0 .06.047.105.062-.045.03-.075.076-.12.106a6.657 6.657 0 0 1-.569.305c-.104.045-.194.06-.314.076-.284.046-.284.243-.225.472-.149.121-.374.198-.449.365-.074.183.015.41-.015.624 0 .106-.104.183-.149.29-.09.12-.24.273-.225.395.03.35-.134.517-.374.654-.299.153-.509.32-.584.7-.06.305-.329.579-.359.883-.03.305-.045.518-.344.624-.165.061-.24.213-.195.396.09.32.12.624 0 .959-.09.304-.12.64-.194.944-.045.228-.21.38-.42.456-.149.06-.314.091-.449.168-.074.045-.164.152-.164.243-.015.274-.015.517-.285.7-.554.365-.928.898-1.167 1.522a2.266 2.266 0 0 1-.18.442c-.12.197-.299.32-.539.304-.209-.015-.419-.061-.628-.076-.045-.015-.105.03-.135.06-.09.092-.09.198 0 .305.03.03.075.061.105.107.089.167.06.395-.06.41-.494.046-.764.61-1.302.533-.33.259-.659.518-1.003.776-.03.031-.03.107-.03.153.075.365-.135.472-.434.517a2.379 2.379 0 0 0-.599.213c-.12.061-.255.198-.284.35-.06.198-.015.411-.06.624-.105.579.134 1.187-.135 1.751-.015.045.015.106.03.167.12.411.434.715.599 1.111.119.244.254.487.329.746.03.137-.03.32-.105.441-.105.183-.284.32-.404.503-.075.091-.015.38.105.441.134.061.284.106.434.183.179.076.239.243.15.365-.135.167-.285.335-.405.502-.104.137-.045.502.075.609a4.921 4.921 0 0 0 1.886 1.187c.105.03.225.076.315.046.643-.229 1.362-.335 1.781-1.005.164-.274.359-.548.614-.746.404-.319 1.002-.395 1.242-.974 0-.015.09-.015.12 0 .164.153.374.274.449.457.104.289.075.639.164.944.09.365.315.715.345 1.065.06.639.359 1.126.643 1.644.255.487.509.959.853 1.385.12.152.045.304 0 .456-.059.137-.089.29-.119.427h.03v.106c.089.107.194.213.239.335.389 1.081.569.791 1.467.685.24-.031.344-.213.389-.457.075-.365.33-.548.659-.609.165-.03.329-.06.479-.045.464.015.853-.076 1.063-.548.733.122.688-.472.808-.913.015-.092.015-.213.015-.32-.03-.183-.135-.274-.329-.228a.256.256 0 0 1-.15 0c-.03-.016-.06-.076-.06-.137 0-.533-.06-1.066.12-1.614.075-.243.12-.532.105-.791 0-.502.269-.807.628-1.065.27-.183.569-.32.809-.533.269-.259.493-.563.434-1.005-.015-.198.059-.426.059-.639 0-.152-.029-.335-.119-.457-.36-.532-.719-1.065-1.362-1.339-.315-.137-.449-.456-.449-.791 0-.868.029-1.735.059-2.618 0-.152.09-.305.165-.442.449-.745.943-1.43 1.677-1.933.344-.228.658-.532.958-.837.598-.608.583-.608.943-1.476.119-.259.119-.502.074-.791-.134-.624-.015-1.37.255-1.872.269-.503.584-.914 1.242-.761.779-.137 1.497.015 2.186.38.194.107.314.594.134.7-.239.152-.434.259-.434.609 0 .198-.105.426-.209.594-.524.76-.958 1.567-1.572 2.267-.165.213-.344.411-.434.67-.12.38-.389.472-.749.441-.194-.015-.314.107-.284.305.045.274 0 .533-.075.791-.06.198-.03.426 0 .64.03.213.15.41.195.624.194.837.449 1.674.314 2.556-.015.168.015.335.03.488.03.289.18.502.449.608.195.092.374.229.554.335l.015-.015c-.03 0-.03-.015-.045-.015l.105-.061-.06.076c.12.091.254.213.374.198.359-.046.584.106.749.411.194.35.524.365.853.274.299-.092.584-.229.883-.366.958-.487 1.976-.791 3.054-.806.374 0 .748-.076 1.122-.107.09 0 .255.031.285.092.179.502.718.38 1.047.608.045.031.105.046.135.092.03.015.045.091.03.106a3.191 3.191 0 0 1-.539.335c-.284.137-.629.228-.793.518-.359.593-.808.578-1.362.365-.345-.122-.719-.183-1.093-.244a1.21 1.21 0 0 0-.464-.015c-.509.167-1.018.32-1.512.518-.524.213-.898.563-.943 1.187-.015.304-.209.487-.494.563-.194.061-.404.091-.614.167-.404.137-.464.426-.164.883.015.03.03.061.06.091.464-.015.763-.334 1.092-.593.24-.198.33-.183.569 0 .165.122.329.274.509.38.165.076.27.213.285.366.029.426.029.867.014 1.308 0 .229-.194.396-.389.472a.518.518 0 0 1-.434-.137c-.239-.213-.419-.487-.643-.73-.225-.274-.375-.305-.689-.198-.434.122-.778.35-.928.822-.105.304-.24.593-.344.913-.12.411-.18.837-.09 1.278.12.533.194 1.081.269 1.614 0 .091-.075.228-.149.259a6.52 6.52 0 0 1-.749.304c-.269.106-.404.289-.449.593-.075.533-1.063.625-1.317.214-.06-.092-.12-.183-.165-.274-.134-.29-.389-.381-.658-.35-.539.045-1.063.182-1.527.487-.629.395-1.272.806-1.961 1.111-.225.106-.359.395-.584.532-.105.076-.359.122-.434.046a4.172 4.172 0 0 1-.748-.807c-.075-.106-.015-.319-.03-.487-.015-.137-.255-.258-.374-.152-.255.198-.479.396-.839.426-.494.031-.883.366-1.287.609-.075.031-.239 0-.284-.061-.18-.198-.33-.411-.614-.487-.254-.061-.569-.091-.733-.243-.18-.168-.255-.472-.345-.731-.03-.061.015-.183.06-.274.015-.015.105-.03.135-.015.434.183.913.228 1.302.578.449.381.913.198 1.183-.335.344-.669.523-1.354.434-2.1-.015-.015-.03-.046-.045-.061 0-.015.015-.03.015-.045-.569-.031-1.003.258-1.392.639-.15.122-.18.395-.075.593.12.183.254.35.359.548.03.061 0 .244-.045.274-.075.031-.194-.015-.284-.03a.35.35 0 0 1-.135-.092c-.374-.289-.479-.852-.973-1.05-.03-.03-.03-.198-.03-.304.06-.396.255-.685.644-.852.12-.046.105-.183.015-.274-.03-.046-.06-.092-.105-.122-.524-.259-.644-.685-.434-1.218.09-.259.165-.517.12-.806-.015-.153-.18-.32-.3-.29-.104.016-.224.031-.314.076-.599.351-1.033.944-1.721 1.172-.075.016-.135.183-.135.274 0 .624-.449 1.218-.18 1.872.03.077-.045.214-.09.305a.647.647 0 0 0 .135.609c.105.121.24.243.27.38.149.7.389 1.355.434 2.055.015.38-.479.928-.809.837a1.554 1.554 0 0 0-1.242.137 3.242 3.242 0 0 1-1.048.396c-.479.106-.883.365-1.302.578a1.452 1.452 0 0 0-.778.974c-.449 1.461-.464 1.461-1.572 2.359-.24.198-.554.32-.823.487a1.06 1.06 0 0 0-.3.381c-.09.198-.105.411-.164.624-.105.335-.33.548-.659.669-.15.046-.314.077-.464.137-.255.092-.464.244-.584.503-.179.35-.509.365-.838.319-.269-.03-.494-.167-.719-.335-.104-.076-.284-.091-.434-.106-.149 0-.344.198-.314.32.06.319.15.624.21.943.045.228-.12.396-.375.411-.374.031-.733.031-1.092-.152a.952.952 0 0 0-.614-.076c-.419.091-.823.243-1.242.365-.12.046-.255.259-.225.381.09.548.135 1.095.883 1.126.315.015.599.274.898.335.539.137.883.456 1.033.943.165.503.449.868.883 1.127.315.182.419.487.404.822a72.551 72.551 0 0 1-.164 2.587c-.03.32-.135.639-.225.944-.09.289-.494.578-.778.456-.554-.243-1.168.076-1.721-.213a.695.695 0 0 0-.464-.03c-.539.213-1.078.121-1.587-.031-.569-.167-1.138-.289-1.722-.137-.149.031-.344.031-.479-.03-.658-.244-1.242-.244-1.736.38-.09.107-.284.107-.434.168-.105.03-.209.076-.299.137-.18.076-.33.38-.225.548.27.532.449 1.08.329 1.704-.014.046.015.107.03.152.24 1.218.015 2.375-.494 3.486a9.884 9.884 0 0 0-.359.913c-.075.198-.075.441.075.624.464.563.689 1.202.599 1.933a.651.651 0 0 0 .045.335c.03.091.09.228.179.259.404.106.779.334 1.243.213a2.16 2.16 0 0 1 .628-.092c.27 0 .539.107.704.35.209.305.389.64.599.944.224.32.718.426 1.017.259.225-.137.465-.274.674-.442.554-.395 1.138-.532 1.826-.487.479.031.958-.045 1.437-.061a.839.839 0 0 0 .674-.395c.194-.274.434-.472.748-.563a.94.94 0 0 0 .644-.655c.15-.472.389-.898.748-1.248.165-.167.255-.411.105-.593-.629-.777-.284-1.401.254-2.01.15-.167.285-.319.42-.487.434-.487.793-1.05 1.526-1.08.719-.35 1.273-.807 1.288-1.705.015-.335.06-.654.089-.974.03-.152.06-.32.105-.472.12-.395.614-.745.973-.669.734.152 1.497.121 2.141.593.284.213.658.137.883-.137.404-.532.898-.913 1.542-1.126.179-.061.359-.244.494-.411.374-.426.793-.472 1.302-.274.479.183.838.441 1.063.928.194.381.374.761.568 1.142v.015c0-.015-.015-.015-.03-.03l-.044.045h.074v-.015c.659.609 1.348 1.203 1.931 1.903a2.77 2.77 0 0 0 1.587 1.05c.763.198 1.257.776 1.901 1.157.195.411.554.639.943.852.135.061.254.198.329.32.165.41.3.821.434 1.232a.582.582 0 0 1-.015.32c-.149.472-.284.883-.898 1.004-.958.168-1.901.366-2.859.259-.149-.015-.329.061-.449.137-.09.031-.164.152-.179.244-.015.106 0 .258.06.304.314.198.643.396.972.563.659.35 1.318.685 1.991 1.035.12.061.345-.061.404-.198.06-.152.135-.304.135-.456 0-.229-.075-.442-.075-.655 0-.319.255-.593.614-.578.359.015.629-.107.808-.411.255-.472.509-.944.764-1.431.164-.319.119-.624-.06-.928-.09-.137-.225-.259-.24-.411-.045-.198-.015-.426.03-.624.09-.335.509-.487.794-.304.254.182.479.426.733.608.045.031.225-.015.269-.076.225-.289.21-.746-.044-.883-.839-.471-1.527-1.217-2.485-1.476-.329-.091-.389-.304-.419-.593-.015-.092-.09-.214-.165-.244a2.098 2.098 0 0 0-.629-.122c-.524-.03-.913-.289-1.242-.669-.24-.29-.494-.579-.644-.929-.254-.639-.733-1.065-1.212-1.507-.195-.182-.434-.289-.644-.471-.269-.214-.389-.518-.374-.868 0-.259.03-.533.045-.807a.455.455 0 0 1 .269-.38c.225-.122.479-.213.734-.305.06-.015.224.061.254.137.075.259.09.533.18.777.075.198.239.441.464.38.359-.106.569.259.898.213.255-.045.434.137.494.335.21.731.733 1.187 1.317 1.568.479.335.928.761 1.557.776.254.183.479.441.808.487.404.061.689.335.943.594.3.304.569.654.868.958.165.183.225.351.195.594-.015.32.03.639 0 .974-.045.578.045 1.081.554 1.431.045.03.09.106.075.137-.15.487.194.669.494.898.254.198.464.441.688.669.075.487.599.746.629 1.264-.03-.016-.03-.031-.06-.046v.046c.03 0 .045.015.06.015v-.015c.135.121.15.182 0 .304v.015c0 .107.015.213.015.335.434.305.823.639.913 1.218.03.122.195.258.329.319.389.183.809.305 1.243.259.194-.015.344-.122.254-.304-.239-.533.329-.868.284-1.355 0 0 .105-.061.15-.061.404.152.674-.198 1.018-.289.12-.03.15-.122.12-.243-.135-.427-.27-.838-.674-1.081-.194-.122-.404-.198-.524-.365-.419-.563-.793-1.172-1.167-1.766-.045-.076-.03-.213-.03-.304-.015-.061.015-.122.03-.168.06-.106.149-.121.254-.03.09.076.165.152.24.228.464.396.898.274 1.107-.289.075-.213.135-.411.24-.594.03-.076.194-.152.254-.121.21.091.404.152.584-.031.285-.243.599-.213.928-.167a.905.905 0 0 1 .793.867c.015.655.03 1.309-.164 1.948-.045.122.135.305.284.32.165 0 .315-.015.479-.015.06 0 .105-.031.165 0 .045.015.105.061.105.106.015.092.03.214-.015.305-.195.319-.569.274-.824.441-.059.015-.104.046-.119.092-.06.121-.015.228.089.289.195.091.39.198.569.289.15.091.315.137.419.243.195.168-.224.366-.03.518.27.167.554.35.689.654.15.32.434.487.659.716a.582.582 0 0 0 .583.137c.479-.137.839 0 1.138.395.09.137.239.213.389.29.075.06.195.106.3.091.523-.076 1.092-.091 1.437-.578.269-.381.613-.381 1.002-.29.375.092.704.29.973.548.434.457.943.457 1.497.366.599-.122 1.093-.396 1.482-.883.135-.168.359-.259.584-.152.404.167.823.106 1.242.137v-.031l.045-.061-.015.092h-.03c-.194.578-.149 1.172-.045 1.735a3.505 3.505 0 0 1-.075 1.628c-.104.411-.254.822-.389 1.233-.209.563-.479 1.096-.583 1.689-.09.548-.375 1.02-.719 1.446-.15.168-.314.32-.539.335-.793 0-1.601.137-2.38-.213-.284-.122-.628-.106-.943-.137-.718-.061-1.377.137-1.991.518-.284.182-.583.197-.913.121-1.152-.228-2.29-.563-3.457-.7-.42-.061-.899-.106-1.243-.319-.524-.35-1.093-.427-1.676-.533-.479-.076-.913-.244-1.273-.624a1.207 1.207 0 0 0-.553-.289c-.913-.229-1.812-.183-2.68.228-.539.259-1.033 1.081-.823 1.781.06.198.135.411.195.624.044.213-.03.426-.165.609-.105.121-.21.243-.329.35-.285.289-.734.35-1.033.167a6.94 6.94 0 0 1-.539-.38c-.27-.168-.524-.381-.793-.533-.674-.35-1.363-.639-2.141-.624-.344.015-.614-.213-.748-.518-.09-.198-.165-.411-.24-.608a.978.978 0 0 0-.658-.67c-.899-.35-1.827-.639-2.815-.518-.568.076-1.032-.182-1.541-.395-.045-.016-.105-.031-.135-.061-.359-.442-.838-.639-1.347-.807-.225-.076-.329-.548-.165-.715.225-.244.464-.457.674-.7.329-.366.329-.792.164-1.218-.104-.243-.314-.441-.449-.685a.428.428 0 0 1-.03-.304c.105-.305.24-.594.36-.883.075-.152-.075-.35-.255-.304-.269.076-.524.106-.718-.153-.33-.411-.749-.395-1.183-.274-.404.107-.793.29-1.212.396-.255.061-.524.046-.794.061-.404-.289-.838.122-1.242-.061-.464-.243-.808.122-1.212.168-.33.045-.659.076-.958.015-.809-.107-1.617-.076-2.38.182-.434.137-.854.122-1.288.137a2.643 2.643 0 0 0-1.062.29c-.569.319-1.138.624-1.722.882-.449.183-.883.366-1.242.716-.419.411-.973.487-1.497.258a2.21 2.21 0 0 0-1.242-.182c-.419.076-.869.061-1.288.03-.194-.015-.389-.152-.568-.258-.09-.061-.135-.168-.21-.244-.419-.441-.868-.32-1.063.259-.105.304-.239.624-.314.943-.135.761-.614 1.218-1.257 1.583-.569.305-1.108.655-1.647 1.005-.509.335-.973.685-.973 1.4 0 .274-.21.487-.374.715a1.77 1.77 0 0 0-.329 1.233c.029.32.044.639.044.974.015.274-.059.533-.224.761-.21.305-.404.639-.644.944-.119.167-.284.32-.464.441-.254.183-.554.335-.793.533a2.211 2.211 0 0 1-1.153.517c-.419.046-.688.305-.913.624-.12.183-.27.351-.359.548-.18.411-.464.716-.853.929-.434.243-.659.67-.898 1.111-.404.761-.749 1.568-1.407 2.176-.15.153-.255.35-.345.548-.374.837-.778 1.674-1.302 2.42-.224.32-.284.7-.33 1.081-.059.472.046.852.465 1.126.36.228.479.609.36.989-.106.381-.12.716 0 1.112.269.943.343 1.917-.12 2.861a1.12 1.12 0 0 0-.09.319c-.165.975-.42 1.903-1.138 2.634-.045.06-.045.228 0 .304.15.289.344.548.524.822.18.274.3.578.135.913-.21.502-.045.974.15 1.415.149.381.463.609.808.777.269.152.568.228.883.335v-.031l.045-.076-.045.107c0 .334.12.624.419.791.284.183.479.411.569.746.044.228.224.38.419.472.449.197.808.532 1.122.898.15.152.3.365.315.563.015.685.359 1.248.658 1.826.33.594.779 1.035 1.407 1.279.449.182.839.456 1.228.761.868.715 1.721 1.461 2.694 2.054.464.274.958.487 1.467.64.15.045.329.045.479-.016.344-.137.674-.304 1.018-.471.599-.29 1.197-.442 1.856-.427a6 6 0 0 0 1.287-.106c.644-.107 1.258-.046 1.856.243.15.061.315.107.464.153.315.091.629.091.943-.031.345-.137.719-.228 1.063-.365.299-.107.614-.213.868-.396.404-.304.853-.472 1.317-.609.45-.137.899-.395 1.378-.441.673-.076 1.332-.411 2.05-.289.165.03.33.03.464.091.614.259 1.123.654 1.377 1.294.12.304.225.624.375.913.269.533.718.776 1.302.791.165 0 .329 0 .479-.03.688-.122 1.377-.228 2.065-.381.405-.106.719-.121.943.305.105.182.285.335.465.441.568.381.628.974.658 1.568.015.365-.105.761-.224 1.111-.09.304-.33.578-.39.883-.074.365.06.776-.044 1.126-.15.563-.21 1.187-.644 1.644-.06.061-.06.198-.075.304a.54.54 0 0 0 .03.152c.718 1.766.958 2.131 2.35 3.455.24.213.464.442.719.655.419.365.703.822.943 1.309.104.258.179.502.254.776a7.98 7.98 0 0 0 .763 1.765c.405.64.419 1.446.599 2.162.03.152-.09.319-.12.471-.015.214-.06.442-.015.64.09.487.21.974.449 1.4.105.183.21.38.27.594.209.882.209 1.75-.554 2.404-.344.289-.554.655-.853.974a2.14 2.14 0 0 0-.554 1.157 5.721 5.721 0 0 1-.599 2.024c-.179.35-.239.716-.254 1.096v1.964c0 .35.09.669.329.898.614.639 1.033 1.4 1.302 2.222.3.882.719 1.704 1.123 2.541.299.579.539 1.142.524 1.842-.015.7.135 1.4.344 2.085.09.259.18.533.18.792-.015.776.209 1.506.359 2.252.165.837.539 1.537 1.033 2.192.269.335.509.7.793 1.035.285.335.419.73.524 1.172.195.852.434 1.689.853 2.45.105.198.18.396.255.594.164.502.224.959-.15 1.4a.468.468 0 0 0-.045.594c.315.426.329.913.389 1.4 0 .106.06.243.135.289.554.32 1.123.639 1.692.928a.61.61 0 0 0 .464-.015c.523-.304 1.062-.502 1.676-.456.254.015.539-.076.778-.198a3.662 3.662 0 0 1 1.407-.259c.524 0 1.048-.167 1.572.076.15.061.359.107.464.031.464-.274 1.108.03 1.497-.487.075-.092.284-.153.434-.153.793-.015 1.422-.38 2.066-.806.913-.594 1.631-1.401 2.44-2.131.508-.487.987-1.005 1.362-1.598.374-.609.838-1.127 1.212-1.72.21-.335.434-.639.764-.837.688-.426 1.032-1.096 1.257-1.842.165-.517.284-1.05.419-1.583.06-.258.06-.532-.09-.791-.209-.35-.015-.624.225-.852.374-.32.763-.594 1.257-.716.524-.122 1.033-.274 1.497-.593.359-.244.673-.564.673-1.035 0-.563.135-1.081.225-1.614.045-.274.03-.532-.03-.806-.254-.837-.464-1.675-.703-2.512-.075-.289-.03-.608.179-.761 1.168-.959 2.305-1.948 3.443-2.922.329-.274.733-.472 1.123-.624.464-.183.868-.457 1.287-.685.943-.533 1.527-1.324 1.931-2.313.194-.472.299-.898.209-1.416-.075-.472-.015-.974 0-1.476 0-.381.09-.761 0-1.142-.119-.654-.045-1.278.105-1.932.075-.335-.045-.67-.344-.838-.569-.35-.764-.882-.943-1.461-.24-.745-.135-1.506-.27-2.252-.03-.152.03-.32.105-.472.165-.335.165-.655-.135-.883-.568-.441-.643-.928-.344-1.568.225-.502.359-1.019.764-1.43.479-.457.568-1.157.898-1.72.149-.274.329-.533.628-.7a4.157 4.157 0 0 0 1.303-1.203c.913-1.293 2.035-2.374 3.188-3.455.673-.639 1.287-1.324 2.155-1.674a.654.654 0 0 0 .27-.182c2.021-1.598 3.622-3.547 4.64-5.951.374-.898.733-1.812 1.347-2.588.404-.502.599-1.141.793-1.781.195-.669.195-1.339.21-2.009 0-.182.015-.38.03-.578 0-.198-.434-.472-.629-.396-.045.016-.104.031-.149.061-.419.366-.928.533-1.437.655-.21.03-.434.076-.644.106-1.048.183-2.126.229-3.128.624-.15.061-.33.076-.479.061-.614-.076-1.153.152-1.692.426a1.625 1.625 0 0 1-.449.168c-.209.076-.419.03-.614-.092a1.746 1.746 0 0 1-.374-.304c-.374-.38-.748-.776-1.122-1.157-.15-.137-.105-.258-.03-.426.284-.609.284-.761-.15-1.126-.299-.244-.569-.487-.778-.807-.464-.685-1.108-1.187-1.647-1.781-.329-.365-.763-.593-1.212-.806-.779-.381-1.422-.929-1.617-1.872-.105-.472-.284-.929-.419-1.401-.15-.487-.449-.867-.838-1.171-.33-.274-.674-.548-1.003-.822a1.12 1.12 0 0 1-.449-.837c-.03-.929-.3-1.812-.464-2.725-.165-.867-.674-1.461-1.392-1.902-.135-.092-.315-.122-.434-.213a.947.947 0 0 1-.255-.396c-.06-.152-.09-.32-.09-.487.06-.563-.105-1.05-.464-1.507-.164-.198-.269-.457-.419-.685-.629-1.02-1.302-1.994-1.572-3.196-.059-.213-.194-.381-.284-.578-.09-.168.015-.335.21-.32.224 0 .434.046.613-.122.15-.152.315-.289.539-.289.3 0 .494.198.659.411.134.167.239.365.389.517.614.777 1.018 1.675 1.602 2.451.344.426.583.898.703 1.446a.932.932 0 0 0 .614.7c.673.213 1.078.67 1.332 1.324.075.198.165.396.269.594.195.334.285.7.255 1.095 0 .153.015.32.015.488.045.882.494 1.537 1.167 2.054.255.198.554.335.809.533.434.335.778.73.943 1.294.179.654.539 1.172.973 1.659.374.395.733.806 1.032 1.263.36.533.629 1.141.465 1.841-.045.214-.075.427.029.624.375.746.449 1.568.704 2.344.105.305.224.609.374.898.165.259.389.381.674.381.254 0 .524-.046.793-.061.389-.03.749-.137.988-.472.344-.441.778-.548 1.287-.472.614.061 1.183-.061 1.692-.411.314-.243.673-.319 1.048-.38.314-.061.628-.183.838-.441.254-.305.598-.457.943-.579.569-.182 1.152-.335 1.691-.548.449-.167.868-.411 1.302-.609.21-.091.375-.258.405-.487.104-.563.464-.837.958-.974.673-.198 1.332-.411 2.02-.548.479-.076.809-.258.913-.761.075-.289.24-.487.539-.532.569-.092.973-.381 1.168-.959.09-.259.344-.426.599-.518.209-.061.434-.076.613-.198a.513.513 0 0 0 .24-.365c.045-.319 0-.654.03-.974.03-.289.149-.548.389-.7.808-.517 1.272-1.294 1.691-2.116.27-.532.21-.821-.269-1.293a6.587 6.587 0 0 1-.808-1.005.996.996 0 0 0-.779-.517c-.419-.046-.853-.076-1.272-.183a1.83 1.83 0 0 1-.674-.411c-.389-.38-.673-.837-.748-1.4l-.18-1.461c-.015-.046-.06-.122-.09-.122-.104 0-.239 0-.299.061-.614.685-1.302 1.309-1.781 2.085-.389.624-.898.913-1.587.868-.554-.031-1.078-.016-1.586.213-.21.091-.405-.046-.569-.213-.18-.198-.345-.411-.36-.701-.059-.547-.089-1.08-.149-1.628a.64.64 0 0 0-.135-.289c-.06-.076-.165-.168-.254-.183-.075 0-.225.061-.27.122-.12.183-.194.396-.284.593-.12.229-.3.229-.494-.015-.195-.259-.359-.532-.404-.883-.075-.563-.375-1.019-.734-1.415a20.293 20.293 0 0 0-.793-.807c-.12-.121-.284-.182-.359-.319a26.753 26.753 0 0 1-.928-1.72c-.075-.137-.06-.32-.045-.472.015-.213.075-.426.134-.639.03-.092.135-.198.225-.213.299-.046.629-.092.943-.076.299 0 .644.015.913.152.21.122.329.426.464.654.404.64.808 1.279 1.198 1.933.164.305.419.487.748.579.15.03.314.076.464.121.374.076.704.229.943.563.165.198.419.32.644.472.583.411 1.287.518 1.961.685.284.061.523.031.763-.106.389-.198.763-.411 1.152-.579.464-.182.884-.015 1.093.411.165.35.3.7.449 1.066.135.334.389.471.749.502 1.496.106 2.963.441 4.43.685.539.091 1.048.137 1.587.061.898-.107 1.781-.396 2.709-.168.18.046.419-.03.614-.091.644-.183 1.272-.198 1.931-.167a.584.584 0 0 1 .509.35c.09.182.224.35.419.471.239.137.434.35.494.624.12.548.419.838.958.929.374.076.658.319.898.654.404.563.988.807 1.661.853.15 0 .285.015.435.015 0-.015.015-.015.03-.031l.059-.03-.03.061h-.059c-.255.38-.554.593-1.033.396-.06-.016-.225.045-.255.121-.045.061-.03.229.015.29.464.502.943 1.019 1.437 1.491.913.852 1.317.868 2.38.167.404-.273.689-.624.734-1.126-.015 0-.015 0-.03-.015l-.015-.076.045.046v.045c.045.031.104.046.104.076.24.716.524 1.416.464 2.207-.015.32-.029.67.09.959.285.776.389 1.583.584 2.374.195.792.659 1.492.689 2.344 0 .137.104.305.179.442.255.487.479.974.794 1.415.389.548.598 1.157.823 1.781.105.304.239.609.314.913.15.655.434 1.218.913 1.705.255.274.494.593.629.928.284.761.718 1.476.808 2.298.06.503.3.944.599 1.324.135.183.284.335.449.472a.885.885 0 0 0 1.287-.167c.09-.137.15-.289.225-.426.12-.259.299-.472.569-.563.344-.122.464-.381.583-.716.135-.411.39-.761.794-.974.269-.137.344-.411.314-.7-.03-.274-.09-.548-.135-.807-.06-.334-.06-.654.09-.958.09-.198.165-.396.24-.609.224-.457.239-.929.03-1.416-.105-.243-.135-.532-.135-.791a17.93 17.93 0 0 1 0-1.796c0-.365.209-.609.569-.685.164-.03.374-.061.434-.167.269-.457.703-.624 1.167-.777.21-.076.33-.274.389-.502.075-.259.12-.548.39-.7.673-.35 1.077-1.02 1.676-1.476a2.77 2.77 0 0 0 .644-.746c.194-.32.464-.594.673-.898.165-.228.39-.335.644-.457.883-.395 1.497-1.02 1.512-2.1.015-.289.224-.472.464-.624.389-.213.823-.259 1.257-.244.988.046 1.901-.167 2.724-.761.36-.258.839-.198 1.153-.548.015-.015.225.077.254.153.12.304.21.608.3.928.329 1.081.883 1.979 1.931 2.481.149.061.299.137.434.213.224.122.284.32.209.685-.104.502-.044.67.434.867.33.137.569.305.719.624.015.046.045.092.06.137.344.716.509 1.416.269 2.207-.075.244-.045.533-.03.807.015.228.345.548.539.533.359 0 .719-.016 1.048-.122.18-.929.329-1.872.479-2.816.254-1.613.479-3.257.659-4.901l.224-2.146.09-1.08c.015-.137.03-.259.03-.381.075-.746.12-1.491.165-2.222v-.015c.015-.122.029-.259.029-.381.03-.487.06-.974.075-1.461.03-.609.06-1.202.075-1.811l.045-1.537v-.061c.015-.822.03-1.659.03-2.481v-.456Z" fill="#A1B6A5"/></g><path d="M14.666 173.238c-.135.015-.33.046-.539.092l.135.867c.374.274.838.35 1.392.168.15-.046.3-.107.434-.168.134-.061.194-.289.105-.411-.345-.502-.854-.578-1.527-.548ZM51.153 198.95v-.038h-.037c0 .013.012.025.012.038h.025ZM17.328 133.239a.271.271 0 0 1 .135-.091c.24-.091.48-.243.734-.274a11.129 11.129 0 0 1 1.586-.106c.345 0 .614-.122.868-.35.06-.061.18-.077.285-.092.03.031.09.046.12.092a.739.739 0 0 1-.06.898c-.33.456-.779.791-1.362.547-.734-.289-1.482-.076-2.216-.137-.075-.015-.18-.136-.194-.213-.015-.091.06-.197.104-.274Zm1.093-9.664c.015-.015.075-.015.12-.031.03.031.09.061.105.092.06.106 0 .167-.12.152-.06-.015-.105-.046-.12-.076-.03-.031-.015-.107.015-.137Zm6.257.746c.03-.016.075.015.105.03 0 .046.015.091 0 .107-.03.015-.09.03-.12.015-.045 0-.06-.046-.105-.092.045-.015.075-.06.12-.06Zm2.8-4.582c.044 0 .104.031.134.061.015.015.015.092 0 .107-.225.121-.45.258-.674.365 0 0-.045-.076-.06-.107.12-.243.315-.41.6-.426Zm2.559-7.823c.15.061.134.092-.03.092-.03-.031-.075-.046-.105-.061a.411.411 0 0 1 .135-.031Zm2.949 1.614c.06-.122.18-.229.284-.335.03.091.075.182.09.289.03.106.045.213.075.426 0 .03-.015.183-.045.335-.015.015-.09.046-.135.03-.33-.106-.45-.411-.27-.745Zm1.062-.503.075.076c.03.076.06.168.075.244-.045-.076-.075-.168-.105-.244-.12.016-.135-.015-.045-.076Zm3.847 4.338.06.046-.09-.031.03-.015Zm.404-2.785c.255-.046.524.061.779-.061.524-.274 1.032-.076 1.526.091.045.031.075.168.09.259 0 .046-.06.106-.105.122-.18.076-.374.137-.538.198-.45-.229-.869-.168-1.288-.153-.15 0-.284-.106-.419-.182a.184.184 0 0 1-.075-.137c-.015-.046.015-.137.03-.137Zm.404 3.12.03-.107.03.107h-.06Zm6.886-2.161c0-.016.075.091.06.121-.135.442-.554.442-.823.64-.075-.107-.15-.168-.135-.183.194-.35.539-.487.898-.578Zm-28.62 19.466c-.569.304-1.122.624-1.706.883-.33.137-.644.258-.958.395a36.382 36.382 0 0 0-.27 1.842c-.074.426-.134.868-.194 1.294l-.045.411c-.075.502-.135 1.019-.195 1.522-.075.624-.134 1.263-.21 1.887-.06.594-.104 1.202-.164 1.811l-.135 1.796c0 .076-.014.137-.014.198l-.09 1.507c-.015.167-.03.335-.03.502-.03.518-.045 1.035-.075 1.552 0 .122 0 .259-.015.381l-.045 1.4c.27-.213.569-.38.913-.472.105-.015.195-.076.3-.106.329-.107.568-.32.778-.563.165-.213.314-.442.494-.64.135-.167.314-.334.494-.395.389-.107.658-.35.943-.609.434-.411.913-.731 1.526-.852.285-.061.45-.274.464-.579 0-.213.15-.258.285-.35.18-.106.36-.243.509-.396.12-.106.195-.273.105-.426-.135-.243-.255-.441-.105-.73.18-.396.254-.837-.015-1.248a1.004 1.004 0 0 1-.12-.472c.015-.472.075-.959.12-1.446 0-.03.075-.061.12-.061.044 0 .104.031.134.046.255.198.18.487.195.746 0 .091.105.167.18.228.014.015.104-.015.134-.061.285-.396.57-.791.809-1.218.104-.167.134-.411.164-.608.03-.168.015-.335.015-.487.015-.137.09-.198.225-.183.3.015.494-.168.688-.365.464-.487.809-1.051.898-1.705.09-.578.42-.685.898-.731a5.06 5.06 0 0 0 .944-.152c.15-.045.284-.137.419-.228.044-.015.09-.091.075-.122 0-.045-.03-.122-.075-.137a.993.993 0 0 0-.3-.091c-.15-.015-.224-.061-.18-.168.016-.03.105-.03.165-.045h.15c.928.137 1.781-.32 2.694-.305.135 0 .285-.167.404-.258.33-.259.315-.381-.074-.655-.3-.198-.48-.548-.405-.806.12-.366.21-.731.375-1.066.27-.624.688-1.096 1.332-1.354.344-.153.703-.29.973-.564a.919.919 0 0 1 .733-.258c.734.061 1.362-.29 2.036-.411.254-.046.3-.259.374-.472a.506.506 0 0 1 .33-.304c.523-.153 1.047-.244 1.571-.366.03 0 .12.061.12.061-.015.091-.03.228-.09.259-.195.106-.404.152-.584.259-.449.228-.808.563-.988 1.035-.074.197-.12.441-.074.624.06.334.254.608.553.776.075.045.225.091.3.045.643-.274 1.242-.654 1.661-1.232.255-.35.54-.518.943-.411.809-.274 1.632-.533 2.44-.807.255-.076.51-.183.749-.259.134-.593.703-.411 1.032-.624.15-.091.315-.137.45-.213.09-.045.18-.122.269-.182.105-.061.18-.351.09-.427-.345-.304-.614-.608-.405-1.126 0-.03-.03-.091-.06-.137-.03-.137-.314-.228-.404-.152-.523.472-.943 1.035-1.332 1.613-.15.229-.284.289-.509.229-.15-.061-.314-.077-.464-.092.015-.03.03-.03.045-.061h-.06v.061h.015c-.075.107-.164.168-.284.152-.12-.045-.224-.106-.33-.167h-.014c-.15-.03-.3-.061-.45-.076-.374-.031-.523-.259-.553-.594-.584-.045-.868-.38-.958-1.004-.075-.548-.09-1.05.15-1.553.104-.213-.015-.38-.285-.456-.105-.031-.224-.015-.33-.031a.574.574 0 0 1-.134-.076c.09-.03.195-.061.285-.091.404-.168.778-.35 1.092-.655.18-.152.27-.517.135-.73-.105-.198-.21-.411-.374-.518-.434-.334-.943-.517-1.497-.38-1.422.365-2.874.654-4.116 1.537v.061c-.03 0-.06.015-.09.015-.165.183-.345.365-.524.563v.092c-.24.091-.48.167-.704.258-.134.107-.254.198-.389.305l-.03.076.03-.137c.12-.091.24-.183.36-.289.224-.076.448-.168.688-.244.015-.03.03-.045.045-.061.06-.456.105-.487.524-.563.03-.015.045-.03.06-.045l.03-.031c-.015-.259.104-.472.299-.639a4.88 4.88 0 0 1 1.796-1.05c.42-.122.793-.305.973-.761a.726.726 0 0 1 .18-.259c.329-.289.628-.594.988-.822.329-.228.733.015 1.092.015 1.497.031 2.979.229 4.46.442.644.091 1.258-.198 1.902-.092.15.031.314-.045.464-.076.15-.061.3-.121.449-.213.42-.228.793-.533 1.078-.943.21-.335.539-.503.928-.564.27-.03.539-.106.793-.121.808-.016 1.422-.442 2.02-.883.315-.228.51-.578.345-1.005-.12-.258-.165-.502-.03-.761.09-.198.18-.411.21-.624a.735.735 0 0 0-.075-.471c-.255-.427-.584-.746-1.138-.67.015 0 .015.015.015.015l-.105.061.075-.076h.015c-.015-.152-.015-.32-.075-.472-.074-.274-.254-.472-.538-.533-.15-.03-.315-.015-.48-.03-.06-.015-.104-.031-.15-.046.06-.061.106-.122.18-.152.15-.076.315-.107.45-.167.194-.107.224-.366.09-.564-.15-.228-.315-.456-.63-.426-.104.016-.269.046-.314-.015-.389-.502-.958-.654-1.482-.928-.074-.046-.194-.137-.21-.229-.119-.563-.538-.913-.927-1.278-.195-.183-.36-.411-.524-.624-.165-.198-.18-.411-.015-.594.18-.198.374-.38.569-.578.165-.183.165-.396.045-.594-.24-.365-.404-.745-.3-1.217.03-.122-.104-.305-.21-.411-.224-.183-.074-.518-.343-.7-.21-.122-.015-.396-.09-.609-.075-.244-.03-.518-.075-.792a6.692 6.692 0 0 0-.24-.943c-.27-.716-.404-1.461-.494-2.222a3.184 3.184 0 0 0-.104-.64c-.03-.076-.15-.121-.24-.152-.03-.015-.12 0-.15.046-.389.639-.898 1.187-1.212 1.887-.33.7-.718 1.34-1.482 1.644-.194.076-.33.289-.509.396a3.983 3.983 0 0 1-.718.35c-.27.121-.51 0-.734-.183-.18-.122-.3-.304-.374-.517-.09-.274-.284-.442-.539-.579-.344-.182-.374-.517-.36-.837.03-.533.375-1.02.15-1.598-.044-.107.09-.289.15-.441.18-.503.36-1.02.659-1.477.075-.121-.03-.38-.165-.41-.494-.062-.778-.533-1.302-.533-.195 0-.39-.183-.569-.274-.164-.092-.21-.229-.21-.411 0-.152.046-.32-.074-.457a3.606 3.606 0 0 1-.644-1.126c-.075-.244-.27-.457-.419-.67-.284-.38-.614-.593-1.093-.38-.194.06-.434.091-.628.06-.629-.152-1.288-.136-1.826-.563-.21-.152-.48-.228-.734-.304h-.06c-.12.167-.224.335-.33.517-.029.061-.074.122-.104.168-.18.32-.36.624-.524.944a.461.461 0 0 0-.075.106c-.104.183-.194.365-.299.533v.015a.587.587 0 0 1-.12.426c-.134.198-.3.366-.434.548 0 .015-.015.015-.015.015-.12.168-.224.32-.284.503a.219.219 0 0 0-.03.09c-.105.427.24.853.135 1.325-.045.198.015.441.074.655.12.395-.074.608-.374.791-.134.076-.33.137-.389.274-.314.67-.883 1.081-1.347 1.598-.225.259-.225.578 0 .898.15.228.344.426.494.639.105.183.224.381.254.594.12.578.165 1.187.27 1.765.134.67-.33 1.279-.09 1.933.015.061-.09.198-.165.259-.21.152-.479.274-.643.457-.659.685-1.452 1.111-2.305 1.476-.39.152-.794.32-1.198.472-.284.122-.404.35-.404.639.03.654.09 1.309-.015 1.963a9.535 9.535 0 0 0-.15 1.294c0 .426.06.852.075 1.279 0 .167-.015.334-.075.471-.134.305-.3.579-.464.868-.045.076-.18.152-.254.137-.39-.091-.57.213-.823.411-.15.106-.494.03-.57-.122-.074-.152-.12-.304-.179-.456-.06-.137-.105-.29-.165-.427-.12.366-.24.731-.344 1.081-.33 1.02-.643 2.039-.943 3.074-.075.259-.15.518-.224.792-.135.487-.27.974-.405 1.476-.419 1.537-.808 3.09-1.152 4.642 0 0 0 .016.015.016a.745.745 0 0 1 .36.289c.253.426.463.867.673 1.309.104.228-.06.411-.15.593-.09.168-.255.183-.404.122-.374-.152-.584-.472-.838-.746-.09.426-.18.868-.27 1.309a72.383 72.383 0 0 0-.599 3.135c.165-.03.33-.03.494.031.33.122.629.076.928-.076.225-.122.494-.198.734-.274.135-.046.419.076.404.167-.015.092-.06.229-.12.259Z" fill="#A1B6A5"/><path d="m52.76 224.343-.12-.045.12-.046v.091Zm-1.108-18.948c-.015.015-.075.015-.09 0a3.47 3.47 0 0 1-.24-.396c-.075-.107-.045-.198.06-.244.03-.015.105.046.12.092.075.121.135.274.194.38-.03.076-.03.137-.044.168Zm-.42-3.669c0-.03 0-.091.015-.091.09-.045.18-.091.27-.122.015 0 .075.077.075.107s-.045.106-.075.106c-.09.016-.195 0-.285 0Zm-1.601-1.795c-.12.167-.39.213-.539.106-.135-.091-.15-.259-.105-.396a2.51 2.51 0 0 1 .21-.334c0 .076.015.152.045.228.06.167.194.243.359.198.06-.031.135-.061.194-.092-.06.092-.104.213-.164.29Zm-6.047-7.763c-.03.122-.12.153-.225.092-.03-.031-.03-.076-.03-.107.06-.046.135-.061.225-.106 0 .045.045.091.03.121ZM33.54 189.17l.06-.091.015.121-.075-.03Zm-11.167-3.166c-.015.122-.24.32-.314.274a.712.712 0 0 1-.24-.182c-.254-.411-.224-.564.225-1.081.045-.061.165-.061.27-.076.014 0 .044.091.044.137.03.152.045.319.06.517-.015.107-.015.259-.045.411Zm43.633 30.973c.749-.335 1.168-.928 1.407-1.689.06-.153.15-.29.225-.442.194-.456.464-.837.838-1.172.45-.396.868-.837 1.258-1.263.18-.183.329-.396.479-.609.18-.274.344-.578.464-.913.21-.533.374-1.796.224-2.237a36.29 36.29 0 0 0-.763-2.146c-.045-.137-.195-.274-.33-.335-.254-.092-.524-.213-.778-.198-.464.046-.838-.122-1.168-.411a1.85 1.85 0 0 0-.224-.152c-.374-.244-.823-.396-1.078-.792-.494-.776-1.302-1.111-2.035-1.537a1.983 1.983 0 0 0-1.078-.289c-1.303.046-2.56-.183-3.802-.518-.15-.03-.33 0-.464.046-.21.076-.39.198-.584.289-.15.076-.3 0-.36-.198-.104-.243-.149-.517-.299-.761-.09-.167-.299-.395-.449-.411-.733-.045-1.302-.487-1.946-.761-.494-.213-.987-.365-1.541-.395-.48-.031-.839.061-1.078.517-.015.046-.075.076-.12.076-.105 0-.135-.076-.105-.213.03-.106.045-.213.075-.319.09-.442-.18-.685-.419-.792-.39-.152-.793-.274-1.197-.396h-.015c-.015.092-.03.183-.06.274.015 0 .03 0 .03.016l.06.045-.09-.03v-.031c-.45-.06-.883-.045-1.228.305-.134-.259-.374-.289-.613-.305.344-.334.763-.532 1.227-.639v.031h.06c-.015-.016-.015-.031-.03-.046 0 0-.015 0-.015.015.105-.411.225-.822.314-1.233.06-.274.045-.548-.134-.776-.21-.259-.33-.548-.554-.807-.434-.471-.764-1.05-.868-1.719a1.42 1.42 0 0 0-.434-.853c-.869-.882-1.722-1.811-3.024-2.054-.15-.031-.3-.107-.45-.183-.538-.289-1.107-.335-1.72-.32-.584.031-1.168.016-1.752-.015a.871.871 0 0 1-.449-.137c-.554-.335-.988-.852-1.661-.974-.075-.015-.15-.152-.18-.243a1.62 1.62 0 0 0-.39-.701c-.343-.35-.658-.715-1.032-1.019a2.818 2.818 0 0 0-.838-.457c-.255-.091-.54-.076-.793-.106-.18-.016-.315-.107-.3-.29.015-.517-.24-.806-.674-.989a21.136 21.136 0 0 1-1.167-.563c-.135-.076-.284-.198-.33-.32-.044-.198.165-.213.315-.258.045-.016.105-.031.135-.061.12-.046.164-.137.12-.244a.177.177 0 0 0-.135-.076c-.48-.167-.958-.091-1.437-.076a.79.79 0 0 1-.704-.304c-.075-.092-.224-.031-.27.076-.074.152-.074.365-.179.456-.479.426-1.272.776-1.9.305-.39-.274-.78-.305-1.228-.244-.48.046-.958.061-1.437.091-.24 0-.39-.106-.48-.334-.014-.061-.014-.122-.03-.168-.074-.35-.284-.578-.628-.654a7.728 7.728 0 0 0-.643-.122c-.42-.061-.674-.274-.794-.685a.37.37 0 0 0-.344-.289c-.165-.015-.434.137-.509.319-.045.092-.09.198-.105.305-.015.38-.224.578-.569.685-.254.076-.493.198-.733.304-.165.061-.284.015-.404-.182-.075-.153-.15-.29-.015-.442.224-.228.464-.441.688-.685.12-.121.015-.472-.164-.563-.135-.061-.314-.122-.45-.091a1.674 1.674 0 0 0-.987.502 2.598 2.598 0 0 1-1.228.746c-.509.137-1.062.137-1.496.533-.06.045-.21 0-.315 0-.344-.046-.613.121-.838.365-.284.335-.569.685-.629 1.126-.015.091-.03.183-.06.259.345 1.309.704 2.602 1.078 3.881.15.502.3 1.004.45 1.522.044.106.074.228.119.335.15.487.3.974.464 1.461.224.67.434 1.339.674 1.994.284.822.568 1.628.883 2.435.104.304.224.609.344.898.12.365.27.715.404 1.065.135.35.285.716.42 1.051.254.608.493 1.217.748 1.826 0 .015.015.03.015.03.21.472.404.944.613 1.416.375.852.749 1.689 1.153 2.526.165.381.344.761.524 1.142.21.441.434.867.658 1.309l.494 1.004c.27.533.554 1.066.824 1.598.045.092.09.168.134.244.285.533.554 1.05.839 1.568l.134.228c.27.487.54.974.824 1.446.045.091.09.182.15.274.284.517.583 1.019.897 1.537.18.32.375.639.57.959.194.319.388.639.583.943.224.366.449.716.674 1.081.419.67.868 1.324 1.302 1.994.479.73.988 1.461 1.482 2.192.479.669.973 1.354 1.452 2.039.254.335.509.67.748 1.005.404.547.823 1.08 1.227 1.613.285.38.57.746.869 1.111.419.533.853 1.065 1.272 1.583.27.319.524.624.778.928a89.619 89.619 0 0 0 2.17 2.527l.66.73c.194.213.389.426.568.64.24.243.464.487.689.73a91.039 91.039 0 0 0 2.05 2.146c.225.244.464.472.689.7a91.12 91.12 0 0 0 3.024 2.923c.09.091.18.182.269.258.03.015.045.046.06.046l.21.213c.044-.091.09-.183.15-.274a.348.348 0 0 1 .254-.152c.06 0 .134.137.164.213.06.152.075.289.12.441.3-.03.449-.274.539-.502.434-1.05.913-2.085 1.572-3.044.419-.624.688-1.355.269-2.146-.045-.091-.045-.213-.06-.32-.165-.974.015-1.841.793-2.511.33-.274.644-.578.943-.883a4.441 4.441 0 0 1 1.767-1.111c.359-.121.658-.258.943-.532.21-.229.509-.396.584-.746.014-.061.18-.152.254-.122.33.076.644 0 .958-.046.314-.045.629.031.943.016.614 0 1.153-.122 1.557-.655.18-.259.538-.35.793-.548.18-.137.284-.319.224-.563-.06-.289-.03-.548.105-.791.315-.564.599-1.172.958-1.705.27-.426.42-.868.345-1.385-.045-.381-.045-.791.164-1.111.434-.609.51-1.309.54-2.024.029-.868.029-1.735.029-2.618 0-.594-.045-1.187-.045-1.796.015-.274.09-.563.36-.685ZM60.154 82.986c.012 0 .025 0 .037-.013v-.012l-.037.025Z" fill="#A1B6A5"/><path d="M100.051 49.112a.39.39 0 0 1-.135-.077c-.015-.045 0-.121.03-.152.015-.03.09-.015.12-.03.044.03.104.06.119.091.06.122 0 .183-.134.168Zm-.869.456c-.074.061-.164.122-.254.168-.135.03-.225-.183-.135-.366.03-.076.135-.121.225-.167.03-.015.09.046.135.076.104.076.12.198.03.29ZM88.195 76.706l-.074-.061.09.03.03.107-.046-.076Zm-.508 2.693-.03-.106.075.015-.045.091ZM74.679 91.058l-.105-.076c.045-.015.09-.061.12-.061.045 0 .075.046.105.076-.03.03-.075.046-.12.061Zm26.599-43.955c.269-.122.524-.03.778.076.434.167.839.106 1.228-.122.149-.091.299-.137.434-.228.15-.092.179-.26.15-.426-.015-.107-.045-.214-.06-.32-.015-.198.089-.35.269-.335.404.06.749.015 1.018-.32.135-.167.314-.304.479-.441.793-.594.823-.944.165-1.735a3.035 3.035 0 0 0-.21-.244c-.629-.76-1.497-1.065-2.425-1.08-.524-.015-1.048.198-1.557.32-.089.03-.164.152-.194.243-.075.152-.09.32-.15.456-.09.229-.269.274-.539.229a.966.966 0 0 1-.554-.274c-.15-.137-.314-.107-.404.06-.509.914-1.347 1.355-2.29 1.675-.479.167-1.003.274-1.407.609-.015.03-.015.045-.015.076-.105.091-.224.198-.344.304-.105.092-.225.213-.33.305l-.09.06.06-.076c.105-.106.225-.213.33-.334l.344-.305c.015 0 .03-.015.045-.03.015-.137.015-.305.09-.396.36-.396.703-.807 1.242-1.005.584-.197.973-.639 1.183-1.248.06-.152.135-.304.194-.456.09-.213.135-.411.165-.578a123.924 123.924 0 0 0-7.694 2.374 109.364 109.364 0 0 0-4.326 1.598l-1.84.73c-.016.016-.03.016-.03.016-.6.258-1.198.502-1.812.76a.113.113 0 0 1-.075.031c-.494.228-1.003.441-1.497.67-.134.06-.269.122-.419.198-.539.243-1.077.487-1.616.745-.584.29-1.168.564-1.752.853-.673.335-1.347.67-2.005 1.02-.524.273-1.033.547-1.542.821-.584.32-1.153.64-1.737.96-.478.273-.972.547-1.451.836-.48.274-.958.548-1.437.838-.988.608-1.991 1.232-2.964 1.856-.015 0-.015.016-.015.016-.15.09-.285.182-.434.273l-.27.183c-.404.259-.793.518-1.182.792-.12.06-.225.136-.33.213-.179.121-.359.243-.553.38-.18.122-.36.244-.54.38-.254.153-.493.32-.718.488-.299.213-.583.41-.868.624-.09.06-.164.106-.24.167-.149.107-.284.213-.418.32-.345.243-.689.487-1.018.745.15.122.284.274.389.442.075.122.12.304.09.456-.03.26-.09.548-.225.777-.284.456-.135.806.15 1.187.12.167.195.396.224.594.045.273.045.547-.224.73-.135.091-.15.183-.015.244.15.076.3.106.449.167.18.076.255.228.18.38-.06.092-.12.183-.18.26-.21.243-.24.456 0 .7.075.06.105.212.075.288-.045.153-.21.305-.195.442.03.198.195.38.24.578.06.32.015.67.105.974.104.35 0 .624-.165.913-.045.077-.015.214.03.29.06.091.18.152.24.228.194.274.119.487-.21.518-.225.03-.42.09-.57.258-.089.092-.059.183.03.29.076.076.54.09.076.319-.39.213-.404.594-.404.974h-.045v.046c.015 0 .03-.015.045-.03v-.016c.104.03.21.046.314.061.015 0 .015 0 .03-.015l.06-.061-.03.091c-.015 0-.045 0-.06-.015a5.47 5.47 0 0 1-.314.29c-.015-.016-.03-.016-.03-.031v.045l.03-.015c-.09.411-.24.792-.54 1.111-.149.183-.09.563.075.746.554.624 1.048.654 1.587.076.105-.106.18-.259.285-.365.18-.168.374-.168.583-.091.075.03.15.09.225.136v.03h.045l-.045-.03c.09.03.24.061.254.122.06.198-.134.183-.24.244.016-.015.016-.03.016-.03h-.03v.03h.015c-.165.243-.33.487-.494.746-.105.152-.075.32.075.41.135.077.284.122.419.198.194.107.254.29.164.533-.044.137-.12.259-.18.38h.016c0 .016.015.031.03.046.374.015.584.244.643.624.015.046-.03.107-.074.122-.03.03-.12.03-.135 0-.15-.243-.3-.502-.434-.746h-.075c.015-.015.015-.03.03-.045-.434-.016-.823-.153-1.227-.29a4.64 4.64 0 0 0-.764-.182c-.33-.061-.629.258-.584.593.015.046.03.107.045.152.03.153.12.335.06.457s-.254.168-.39.244c-.209.091-.358.243-.403.456-.075.305-.18.64-.165.96.015.608.3 1.11.793 1.49.045.031.09.061.15.061a2.46 2.46 0 0 0 1.677-.228c.269-.137.404-.593.224-.852a2.282 2.282 0 0 0-.314-.35c-.255-.198-.315-.487-.36-.792-.014-.015-.03-.015-.044-.03l-.03-.107.075.076v.061c.688.35 1.347.761 2.155.777.18.015.27.228.165.365-.12.137-.255.274-.39.41-.015 0-.03-.014-.044-.014v.06l.044-.045c-.09.198-.164.41-.254.593-.09.153-.06.305-.015.457.06.32.06.335-.24.38-.164.031-.359.016-.389.214-.134.7-.494 1.035-1.227.898-.24-.03-.494.06-.748.106-.015.335.09.64.224.929h.06l.03.076-.075-.03c0-.016-.015-.031-.015-.046-.135-.016-.27-.046-.42-.061-.313-.046-.313-.046-.463.228-.06.152-.105.304-.195.426-.194.244-.509.441-.598.715-.12.29-.15.594-.33.883-.105.168-.12.396-.15.609-.014.228.045.426.225.578.105.076.21.168.33.244l.134-.046c.03-.03.06-.076.09-.106.015-.016.075.015.105.03-.075.03-.135.046-.195.076a.4.4 0 0 1-.09.076c-.015 0-.03-.015-.045-.03-.224.228-.464.441-.658.685-.255.32-.344.67-.075 1.035.15.228.284.426.254.746-.03.197.015.426.09.624.255.73.374 1.46.285 2.237 0 .106.015.213.03.32 0 .167.194.32.329.289l.988-.32a.209.209 0 0 0 .045-.06c.015-.031.06-.016.104-.016.045-.046.09-.076.135-.122 0 .137-.06.137-.135.122-.03.015-.044.046-.074.06-.015.016-.045.016-.075.016-.135.335-.42.548-.689.73-.389.244-.449.625-.359.975.12.532.15 1.11.509 1.567l.03-.045v.091c-.015-.015-.03-.03-.03-.046l-.015.016c.105.121.18.274.3.365.254.198.299.41.179.7-.06.152-.135.335-.015.457.314.35.314.791.479 1.187.12.274.075.517-.015.776-.03.091-.045.244 0 .304.195.259.404.487.614.731.509.061.718.365.703.868 0 .03.18.121.255.106.314-.046.628-.106.943-.183.15-.045.3-.106.449-.152.3-.091.584.031.599.305.03.456.134.837.508 1.141.105.091.135.289.24.396.105.122.27.274.374.259.404-.061.719.182 1.093.197.224.016.539-.167.659-.365.359-.593.344-1.339.733-1.918.03-.502.27-.928.569-1.308.254-.305.389-.64.464-1.02.06-.305.164-.609.254-.913-.015 0-.03.015-.045.015-.015-.015-.015-.046-.03-.061-.06-.03-.134-.046-.194-.076-.03-.015-.075-.076-.06-.092.03-.121.105-.137.18-.03.03.06.06.122.074.198.03 0 .045.015.075.015v.03c.27-.152.54-.319.659-.623.194-.594.539-1.02 1.033-1.416.494-.38.658-.974.404-1.613-.105-.259.03-.396.21-.518.09-.06.194-.106.269-.182a.387.387 0 0 0 .135-.426c-.03-.107-.09-.198-.135-.305-.165-.38-.18-.41.27-.457.299-.03.553-.121.643-.38.15-.426.419-.654.838-.594.599.107 1.153-.289 1.751-.106.18.046.285-.091.42-.198.12-.091.239-.259.359-.274.838-.06 1.556-.35 2.17-.928.075-.077.21-.046.314-.092.45-.182.914-.456 1.108-.883.285-.684.898-1.08 1.257-1.689.36-.64 1.153-.791 1.557-1.385.344-.182.734 0 1.093-.076.21-.03.404-.137.599-.198.15-.045.329-.137.464-.091.329.076.628.03.928-.122.524-.274 1.093-.426 1.676-.533.958-.167 1.886-.472 2.65-1.11 1.003-.807 2.08-1.508 3.098-2.314.045-.046.03-.198.03-.304 0-.031-.075-.077-.12-.092-.598-.213-1.287-.076-1.856-.456-.449-.29-.913-.244-1.377-.077-.09.046-.21-.015-.314-.03-.045-.015-.075-.076-.105-.122-.075-.106-.075-.228.03-.259.24-.106.509-.167.748-.273.33-.122.494-.427.464-.777-.045-.32-.104-.639-.15-.959-.014-.106.21-.334.33-.304.09.015.225.091.24.168.224.608.404 1.232.778 1.78.27.365.584.64 1.078.563.21-.015.434-.015.643 0 .584 0 .674-.06.689-.593.03-.487 0-.974.06-1.461.06-.503-.45-.868-.285-1.4.03-.107-.12-.275-.194-.427-.27-.608-.719-1.065-1.258-1.446-.224-.152-.419-.335-.613-.517a1.03 1.03 0 0 1-.27-.411c-.09-.35-.15-.73-.18-1.111-.014-.076.075-.198.15-.244.075-.045.24-.015.27.03.075.138.12.29.134.442 0 .594.21 1.05.719 1.37.314.198.539.533.928.624.15.03.39-.046.39-.198.014-.259.044-.517.224-.746-.09-.289.075-.487.21-.715a.535.535 0 0 0-.12-.609c-.345-.243-.72-.456-1.048-.73-.09-.076-.105-.244-.135-.38-.015-.016-.03-.016-.045-.031-.03-.016-.03-.03-.045-.046-.36-.015-.644-.213-.928-.41-.015-.016-.015-.092.015-.107.03-.046.09-.076.12-.076.12 0 .254-.016.314.045.165.168.315.365.48.548.014 0 .044.015.074.015.015.016.015.046.015.061.135.061.254.107.374.183.36.213.719.289 1.063.015.36-.274.763-.335 1.182-.41.135-.016.285-.184.36-.305.09-.198.134-.411.18-.624.06-.229-.06-.472-.255-.518-.434-.091-.809-.304-1.168-.517-.03-.016-.045-.107-.03-.153.03-.136.135-.167.255-.106.494.274.973.441 1.467-.03.09-.077.314-.046.464-.061.554-.03.823-.929.434-1.264-.255-.228-.434-.456-.464-.806 0-.137-.15-.29-.27-.38-.09-.077-.18-.138-.12-.26.045-.121.135-.136.27-.121.15.03.314.06.45.015.224-.091.284-.32.313-.533.045-.38.075-.76.09-1.141.015-.29-.075-.548-.3-.73-.328-.26-.089-.412.076-.61.12-.137.045-.35-.075-.441-.24-.183-.629-.091-.808-.396 0 .016.014.016.014.016v-.077c-.014.016-.014.03-.044.046l.015.015c-.09-.015-.18-.03-.255-.045-.24-.061-.33-.244-.33-.472 0-.198.09-.35.24-.472.12.122.24.243.36.35 0 .015.014.03.014.03v-.06l-.344-.366-.03.03c.255-.273.51-.547.779-.806.12-.122.464-.122.613-.03.045.03.105.045.135.091.3.35.734.609.659 1.218-.075.487.045.958.21 1.415.014.03.119.03.119.03.045-.167.12-.32.09-.471-.075-.624-.015-1.172.344-1.72.27-.411.33-.913.315-1.416 0-.228-.225-.563-.45-.624-.194-.045-.419-.045-.628-.106-.135-.061-.255-.183-.374-.29-.045-.03-.075-.106-.06-.136.045-.077.12-.183.18-.198.613-.122.673-.198.418-.655-.134-.228-.269-.456-.494-.624-.164-.121-.284-.304-.434-.456-.015-.03.015-.107.045-.137.03-.03.105-.092.135-.076.449.213.704.015.838-.427.165-.578.48-1.095.494-1.72.045-1.476.569-2.739 1.512-3.865.284-.32.524-.685.778-1.035.105-.137.075-.305.045-.472-.075-.396-.075-.441.285-.487.494-.076.748-.396 1.003-.761.089-.137-.015-.502-.18-.563-.15-.061-.299-.122-.449-.152-.21-.046-.419-.046-.629-.077-.045 0-.09-.076-.09-.106.06-.076.105-.198.18-.228ZM37.27 90.223c.135-.289.3-.578.434-.852.06-.137.135-.183.24-.106.044.03.09.06.104.106.06.137.105.29.135.38 0 .366-.224.61-.614.685-.09.016-.194-.045-.284-.09-.015-.016-.03-.092-.015-.123Zm7.784-14.017c.104-.03.194.03.194.152.015.167-.075.29-.224.32.015.03.015.045.015.06l-.09.076.045-.106c.015 0 .015-.015.03-.03-.03-.122-.075-.244-.09-.381 0-.03.075-.076.12-.091Zm-9.64 11.765c-.554-.015-1.063.152-1.557.335a1.55 1.55 0 0 1-.524.121 82.084 82.084 0 0 0-1.497 2.238c.015 0 .03-.016.045-.016.195-.09.404-.152.614-.197.09-.016.225-.03.3.015.538.32 1.137.122 1.706.228a.91.91 0 0 1 .629.442c.254.471.434.989.748 1.43.21.29.36.487.165.853-.105.197-.045.426.09.608.299.457.658.822 1.137 1.066v.015c-.09-.015-.18-.046-.27-.03-.074.03-.18.121-.18.197 0 .077.09.168.166.214.09.06.194.015.24-.107.029-.091.029-.183.044-.274h.03l-.03-.03c.374.121.629.41.868.684.434.487.883.914 1.557 1.066.3.076.539.35.823.472.285.152.584.243.883.334.075.016.21-.076.255-.152.15-.289.21-.593.045-.913-.42-.822-.824-1.644-1.527-2.252-.24-.214-.285-.518-.285-.838 0 0-.015-.015-.03-.015 0-.03-.015-.06-.03-.091a.312.312 0 0 1-.09-.061c.03.015.076 0 .076.03.015 0 .015.03.015.03.03.016.044.031.06.062v.045c.493.183.943.442 1.287.868.254.35.599.609 1.003.776.299.122.494.396.658.685.135.29.285.578.464.852a.332.332 0 0 0 .255.137.179.179 0 0 0 .09-.274c-.24-.426-.18-.791.074-1.202.18-.29.345-.533.614-.73.24-.168.27-.457.21-.746-.03-.153-.06-.32-.12-.472-.24-.548-.36-1.126-.3-1.735.045-.38-.15-.594-.434-.792-.299-.228-.568-.487-.838-.745-.164-.153-.224-.35-.224-.579.03-.487-.075-.943-.39-1.34-.06-.06-.044-.182-.06-.288h-.044l-.045-.061.09.03v.03c.09.016.18.046.27.046.478 0 .523-.06.643-.517.06-.152.104-.305.18-.442.06-.136.314-.167.388-.045.225.32.435.624.66.928.299.396.493.837.583 1.324.03.213.06.427.12.64.03.106.075.213.15.289.299.289.643.563 1.062.67.075.03.225-.061.255-.122.104-.305.18-.624.254-.944.06-.213.165-.38.404-.441.15-.046.315-.076.464-.122.719-.274 1.003-1.096 1.707-1.43.194-.107.344-.412.479-.64a.681.681 0 0 0 .03-.457c-.12-.365-.315-.7-.734-.776-.224-.046-.42-.06-.569-.258l.045.03v-.076c-.015.015-.015.015-.03.046-.134-.122-.12-.229 0-.335.015.015.015.03.03.03v-.06l-.045.03c-.06-.076-.135-.183-.21-.229-.09-.045-.209-.03-.314-.03-.104-.015-.21 0-.314-.015-.195-.03-.33-.305-.254-.503.164-.502.18-.547-.105-.73-.285-.152-.54-.32-.51-.7-.299-.107-.598-.198-.882-.335a.91.91 0 0 1-.51-.594c-.134-.532-.448-.837-.972-.943-.195-.046-.24-.244-.105-.38.314-.366.659-.716.539-1.28-.03-.106.09-.151.21-.121.254.076.508.183.763.213.135.015.344-.06.404-.167.06-.122 0-.305-.015-.472 0-.046-.045-.092-.075-.122-.284-.259-.389-.517-.09-.837.24-.259.285-.563.165-.898-.18-.457-.404-.898-.509-1.355-.15-.715-.524-1.187-1.182-1.37a82.348 82.348 0 0 0-2.65 2.923l-1.033 1.187c-.419.517-.853 1.02-1.272 1.537-.105.122-.21.259-.314.396-.24.29-.48.594-.719.898.075.198.06.426.015.685-.075.532-.06 1.08-.12 1.628-.014.213-.12.427-.344.487-.33.092-.628.244-.808.518-.3.472-.764.76-1.198 1.065-.853.624-1.167.685-.613 1.979.03.076-.06.274-.09.274ZM172.389 230.521c.15.365.18.731.18 1.126-.015.32-.015.655.015.975.03.213.12.426.224.608.39.624 1.003.974 1.647 1.233.389.152.718-.167 1.063-.304.239-.107.509-.122.778-.152.599-.046.988-.366 1.242-.898.18-.396.36-.792.524-1.188.345-.974.629-1.978 1.048-2.907.629-1.4 1.003-2.876 1.617-4.276.179-.381.269-.822.344-1.248.105-.533.224-1.051.434-1.568.165-.442.105-1.005.674-1.187.164-.244.239-.503.224-.777-.03-.487-.15-.974-.15-1.461.015-1.08-.344-2.024-1.002-2.846-.09-.091-.195-.076-.285.015a1.261 1.261 0 0 0-.419.853c-.03.335-.18.593-.494.746-.045.106-.06.228-.135.289-.284.198-.628.289-.673.776-.06.487-.389.852-.868 1.096-.42.228-.734.654-1.153.883-.404.213-.898.289-1.362.441-.045.015-.105.015-.15.03-.434.198-.883.381-1.317.563-.165.351-.314.701-.494 1.02-.404.67-.404 1.34-.165 2.04.075.213.15.411.225.609.269.608.195 1.202-.195 1.704-.374.533-.643 1.126-1.032 1.659-.465.609-.674 1.355-.345 2.146ZM167.824 75.554c.135.076.3.137.449.121.21-.015.404-.121.614-.152.359-.06.644.092.838.365.135.168.24.38.27.579.045.532.389.746.823.867.254.076.524.137.763.244.24.122.479.198.764.167.209-.03.419-.015.643-.015 0 .015 0 .03-.015.046.33 0 .644.015.973-.016.075 0 .195-.09.225-.182.075-.137.105-.305.15-.457.059-.243-.015-.456-.195-.578-.314-.213-.659-.38-.973-.594-.868-.593-1.452-1.43-1.766-2.45-.135-.472-.24-.944-.345-1.43-.149-.7.03-1.401.045-2.116 0-.35.21-.594.375-.883.104-.183.179-.396.209-.609.135-.913.27-1.811.374-2.74.045-.395.165-.776.494-.974.494-.289.794-.73.973-1.232.255-.67.704-1.218 1.063-1.812a5.86 5.86 0 0 1 1.227-1.491c.569-.502 1.108-1.02 1.782-1.385.284-.152.494-.411.763-.594.569-.395.749-.898.509-1.552a2.788 2.788 0 0 1-.135-.472.753.753 0 0 0-.359-.518 6.576 6.576 0 0 1-.374-.304c-.389-.32-.823-.304-1.213-.091-.568.32-1.077.715-1.167 1.446-.06.472-.374.806-.749 1.02-.494.289-1.017.67-1.601.67-.988 0-1.572.577-2.081 1.308l-.09.137c-.104.274-.329.41-.598.487-.21.076-.36.213-.404.457-.06.258-.135.532-.27.76-.15.26-.209.488-.135.762.015.09-.06.197-.104.274-.03.045-.09.06-.135.09-.285.092-.434.32-.584.549-.135.198-.329.213-.554.228-.134.015-.254.274-.194.38.194.32.494.64.554.99.074.396-.09.852-.09 1.278 0 .29-.075.533-.21.761l-.539 1.005c-.119.243-.075.487.15.73.404.427.494.64.21.96-.435.486-.36 1.14-.674 1.643-.165.274-.06.518.15.73.119.107.209.244.284.381.195.335.075.807-.254.99-.24.136-.494.213-.554.532-.06.32-.06.64.075.959.119.304.329.548.613.73ZM109.787 109.307c-.254.472-.494.959-.748 1.431-.06.122-.15.091-.27.091-.478.015-.628.259-.314.563.374.411.449.822.314 1.325-.029.167.045.319.195.426.225.152.21.335.09.548-.09.137-.15.274-.225.426.075.061.135.122.195.198.06.076.075.198.12.289.209.411.284.411.688.015l.105-.106c.03.106.09.213.075.304-.03.274-.075.533-.12.807-.045.289.135.502.449.532a.535.535 0 0 0 .15.031c.269-.016.554-.092.793-.016.3.092.135.488.3.701.089.121.164.289.284.38.239.198.299.411.239.715-.164.822-.329.944-1.212.822-.045 0-.105-.03-.15-.03-.134 0-.224.061-.209.167.03.426-.075.868.299 1.218.135.137.06.472-.09.593a6.158 6.158 0 0 1-.494.396c-.119.107-.269.183-.374.305a.505.505 0 0 0-.06.289c.03.091.12.213.21.228a5.595 5.595 0 0 1 1.796.67c.03.015.075.061.105.106-.075.031-.15.076-.225.076-.539-.076-.973.137-1.242.579-.299.532-.793.867-1.138 1.339-.03.031 0 .122.015.152.03.046.075.122.12.107.15 0 .329.015.449-.061.285-.137.569-.335.898-.274.539.107.928-.03 1.243-.487.104-.137.389-.198.583-.183a5.122 5.122 0 0 0 1.602-.091 9.955 9.955 0 0 1 1.886-.274c.614-.03 1.123-.32 1.527-.791.09-.107.075-.35-.045-.442-.09-.061-.195-.091-.285-.152-.164-.122-.209-.259-.119-.396.209-.319.449-.608.613-.943.36-.716-.044-1.492-.823-1.583-.254-.031-.524-.031-.778-.046v.031l-.045.06.03-.091h.015c-.015-.152 0-.335-.06-.441a8.257 8.257 0 0 1-.659-1.492c-.104-.319-.299-.609-.583-.761-.524-.274-.779-.715-.943-1.263-.225-.776-.689-1.339-1.452-1.629-.12-.045-.165-.121-.105-.243.09-.244.15-.533.299-.746.3-.472.479-.974.614-1.507.06-.243-.135-.548-.404-.593-.105-.015-.225-.061-.33-.061-.359 0-.748.015-1.122 0-.075-.015-.15-.107-.21-.183-.015-.015.015-.106.045-.137.195-.258.404-.517.584-.776.045-.076.045-.213.045-.32 0-.121-.195-.274-.359-.258-.42.03-.854.045-1.273.091-.239.015-.389.167-.509.365ZM128.754 53.16l.06.045-.105-.03-.03-.122.075.107Zm.344 5.114-.119-.077.149-.03-.03.106Zm-3.966-4.506c-.045.487.224.837.464 1.188.224.304.509.547.613.928.405.41.689.944 1.243 1.187v-.03c.015 0 .03 0 .06.015.179-.244.374-.472.568-.715.18-.214.195-.472.165-.746 0-.076.075-.198.15-.244.09-.06.194-.015.239.107.165.395.479.335.794.274.045-.015.104.03.134.076.015.03.015.122 0 .137-.389.182-.658.502-.958.791-.314.32-.688.396-1.092.32-.015 0-.03.015-.03.03-.015 0-.03-.015-.03-.015 0 .29-.015.594 0 .898.015.213.135.365.359.426.225.061.479.061.599.335.015 0 .03-.015.03-.015l.045.045c.134 0 .254 0 .389.016.15 0 .194.076.09.152-.03.03-.09.015-.15.015a.451.451 0 0 1-.329-.182h-.075v-.03c-.195.06-.404.075-.509.273a.758.758 0 0 0 0 .776c.434.761 1.018 1.37 1.871 1.644v-.03l.03-.092-.015.122h-.015c-.03.091-.06.198-.03.274.105.441.359.776.689 1.065.134.122.479.061.583-.106.045-.091.135-.183.135-.29-.045-.715.21-1.384.24-2.084.014-.396.134-.746.359-1.066.12-.182.239-.396.239-.593-.03-.883.449-1.69.36-2.573 0-.106.029-.213.059-.32.12-.364.315-.684.704-.836.12-.03.254 0 .269.121.015.198-.104.488-.015.61.375.547.434 1.232.734 1.795.135.259.179.502.12.792-.06.258-.135.517-.195.776-.045.198.21.456.389.396.255-.076.494-.198.734-.29.269-.121.284-.106.389.274.015.046.015.107.03.153.09.289.269.334.464.167.613-.487.958-1.157 1.107-1.918.015-.076-.074-.182-.149-.243a.473.473 0 0 0-.3-.122c-.524 0-.748-.244-.763-.791-.015-.503-.18-.564-.778-.427-.3.076-.3.061-.24-.213.03-.167.075-.32.105-.487.06-.32-.03-.532-.329-.639-.285-.107-.584-.137-.764-.487-.194-.365-.643-.563-.718-1.05 0-.061-.15-.152-.24-.183-.209-.06-.434-.045-.628-.122-.405-.167-.764-.395-.884-.882-.104-.427-.284-.807-.688-1.05-.135-.077-.225-.229-.3-.366-.164-.289-.374-.517-.703-.609-.21-.06-.374-.213-.569-.32-.194-.106-.419.016-.479.275-.075.35-.164.715-.239 1.08h.03v.076c.164.198.194.427.194.67-.015.046-.015.107-.045.137-.075.076-.134.03-.134-.122-.015-.228-.015-.456-.015-.685-.015-.015-.015-.03-.03-.045v-.03c-.09 0-.195.014-.255-.016-.359-.259-.703-.152-1.048 0v.061c-.015 0-.03 0-.044.015 0 .076.014.168 0 .244-.03.122-.105.182-.225.137-.045-.03-.09-.061-.105-.092-.09-.121-.06-.197.09-.228.075-.015.165-.046.24-.06v-.062c.014 0 .029-.015.044-.015 0-.03 0-.076-.015-.106-.119-.427-.344-.594-.658-.472a4.922 4.922 0 0 1-1.243.289c-.299.03-.464.213-.553.487-.06.152-.105.304-.18.457-.254.624-.12 1.156.359 1.613.12.106.27.198.255.38ZM100.898 93.281a.237.237 0 0 0-.09-.122c-.18-.121-.375-.228-.554-.334-.285-.198-.105-.503-.195-.746-.09-.259-.224-.487-.344-.715-.06-.107-.15-.138-.284-.107-.21.076-.42.06-.584-.122-.27-.289-.539-.259-.823.015-.45.442-.958.624-1.602.411-.18-.06-.45.076-.629.015-.524-.197-.808.046-1.033.472-.014.046-.21.061-.254 0-.12-.09-.18-.243-.284-.365-.105-.122-.345-.06-.42.061a.833.833 0 0 0-.09.624c.075.335-.12.487-.389.609-.09.045-.18.091-.284.122.015.015.03.045.03.06a.995.995 0 0 1-.12.046l.09-.091v-.015c-.18-.244-.24-.518-.21-.838a.898.898 0 0 0-.359-.837c-.12-.091-.224-.213-.344-.32-.374-.334-.524-.334-1.033.016l.03.076-.075-.046c.015-.015.03-.015.045-.03-.254.06-.554.091-.718.32-.285.395-.54.806-.809 1.202-.09.137.15.487.33.472.15 0 .329 0 .464-.061.389-.198.718-.046 1.077.106.135.061.135.137.06.274-.15.213-.194.487-.539.503-.374.03-.733.121-1.107.213-.045.015-.12.167-.105.243.015.107.075.244.15.274.254.076.524.107.778.168.15.045.33.106.42.213.164.213.284.456.403.7.03.06-.03.213-.09.289a.623.623 0 0 1-.284.137c-.254.03-.374.167-.36.426.016.305.18.472.525.502.15.016.314.046.464.03.554-.045 1.078-.03 1.497.412.494.167 1.002.35 1.511.487.195.046.434.03.63-.046.778-.32 1.51-.806 2.334-1.035.15-.045.285-.167.39-.274.403-.395.867-.639 1.406-.776.21-.046.36-.183.494-.365.165-.213.375-.38.539-.594.06-.076.12-.228.09-.289-.224-.472-.03-.837.225-1.218.03-.03.044-.09.03-.152ZM51.445 127.164c.012.013.024.025.024.038l.013-.013c-.013 0-.025-.012-.037-.025Z" fill="#A1B6A5"/><path d="M51.01 124.712a.7.7 0 0 0-.06-.457c-.074-.122-.224-.228-.343-.335-.12-.106-.255-.198-.42-.106-.134.076-.284.152-.419.228-.359.213-.718.152-1.077.061-.21-.046-.285-.183-.255-.487 0-.061.03-.107.03-.168.015-.304-.12-.517-.419-.563-.135-.03-.284-.015-.419-.015 0 .015-.015.03-.015.046l-.06.045.015-.091h.06c.15-.457.449-.837.808-1.142.345-.289.48-.7.704-1.065.045-.076.045-.183.045-.289 0-.091-.285-.152-.434-.122a2.483 2.483 0 0 0-1.362.807c-.749.913-1.393 1.917-1.961 2.968-.3.532-.644.958-1.228 1.172-.194.076-.18.243-.075.38.15.213.105.381-.075.563-.18.183-.344.396-.508.609-.09.107.014.365.134.396.15.045.315.121.464.106.524-.045 1.063-.076 1.587.061a2.52 2.52 0 0 0 1.257.031c.45-.107.809.213 1.213.35 0 0 0 .106-.015.121-.15.168-.315.305-.434.472-.045.061-.045.213 0 .289a.33.33 0 0 0 .254.137c.225-.015.434-.106.554-.304.27-.441.778-.533 1.123-.868.015 0 .12.077.104.092-.03.274-.104.532-.134.791 0 .107.03.244.09.289.314.198.598.457.987.487.195.016.48-.091.554-.258.135-.35.255-.716.39-1.066.12-.289-.016-.487-.195-.669-.015 0-.045 0-.075.015-.015.03-.03.061-.06.076.015-.015.015-.061.03-.076h.03a.2.2 0 0 1 .045-.061c-.18-.198-.39-.259-.659-.198-.105.015-.18-.106-.134-.213.044-.152.12-.304.21-.426.134-.168.298-.305.448-.457.03-.03.03-.091.015-.137-.03-.121-.12-.167-.254-.152-.135.015-.315.152-.42-.046-.09-.152 0-.304.09-.426.09-.137.24-.259.27-.395ZM130.656 49.895c.18.807.404 1.02 1.168 1.035.224.015.464-.046.703-.076l.045-.046h.135c.105-.045.225-.091.329-.137.045-.015.12-.015.135.016.06.09 0 .121-.135.121h-.329c-.03.016-.06.03-.09.03-.03.016-.06.016-.09.016a4.663 4.663 0 0 1-.269.29c-.18.166-.195.395 0 .517.269.182.554.32.808.502.285.228.569.243.898.167.39-.106.689-.045.988.305.345.38.659.35 1.108-.046.15-.137.299-.335.524-.32.569.016.868-.243.973-.837.06-.304.254-.593.449-.852.389-.487.479-1.05.419-1.659-.269-.122-.554-.304-.838-.335a5.353 5.353 0 0 1-1.677-.502c-.269-.122-.494 0-.718.182-.255.214-.285.183-.434-.136a1.806 1.806 0 0 0-.105-.305c-.075-.152-.285-.228-.404-.167-.09.045-.195.121-.225.213-.045.152-.045.32-.075.472-.03.152-.015.365-.104.456-.135.137-.24-.06-.36-.152a.225.225 0 0 0-.149-.06c-.524.045-.898-.244-1.213-.64-.06-.091-.179-.137-.254-.198-.165-.122-.419.015-.449.274 0 .107.03.213.015.32-.03.091-.075.228-.15.243-.06.03-.18-.06-.269-.076-.09-.015-.225-.03-.255.015-.165.213-.314.457-.254.746.03.213.104.411.149.624ZM109.045 117.271c.374-.35.344-.761.135-1.187a2.511 2.511 0 0 0-.33-.548c-.104-.122-.239-.259-.374-.289-.419-.092-.838-.137-1.242-.198-.12.03-.225.045-.33.061-.404.061-.718.228-.868.624-.09.258-.164.517-.284.761a.423.423 0 0 1-.255.167c-.314.031-.643.031-.958.046-.164.015-.314.152-.329.289-.015.335.015.654-.06.974-.075.32.06.502.255.715.254.274.254.594.09.898-.135.29-.33.548-.509.822-.06.076-.15.137-.24.213-.314.29-.165.837.225 1.127.464.35.988.411 1.511.228.3-.107.599-.259.869-.426.464-.289.943-.502 1.482-.563.224-.031.374-.183.493-.381.405-.609.569-1.278.405-2.009l-.09-.487c-.045-.228.06-.426.194-.594a1.63 1.63 0 0 1 .21-.243ZM18.967 171.06c.18-.046.24-.381.09-.548-.15-.152-.3-.335-.48-.426-1.062-.487-2.095-1.066-3.202-1.462a5.168 5.168 0 0 1-1.018-.487 4.318 4.318 0 0 0-.943-.487l.09.868c.03.213.06.441.075.654h.014v.076c.015.016.03.046.045.077.225.563.659.821 1.243.898.045 0 .09.045.134.06.165.061.21.198.105.396-.045.091-.12.183-.164.274-.135.228-.03.472.224.472.36.03.748.015 1.392.015.674.289 1.512-.152 2.395-.38ZM18.995 173.416c.075.289.329.472.583.457.315-.015.63-.076.958-.061a9.06 9.06 0 0 1 1.108.122c.344.061.464.426.748.578.075.046.21.03.285 0a.55.55 0 0 0 .24-.213c.254-.396.598-.594 1.077-.518.15.016.344.016.48-.06.598-.335 1.227-.29 1.855-.122.105-.031.24-.015.3-.076a.837.837 0 0 0 .299-.35c.03-.061-.045-.229-.12-.274-.584-.366-1.122-.807-1.676-1.233-.15-.137-.375-.213-.57-.259-.733-.182-1.451-.365-2.2-.061-.254.092-.523-.03-.763-.182-.09-.061-.165-.137-.254-.183-.21-.091-.464.03-.674.32-.09.152-.09.334.06.426.374.228.36.639.449.989.045.183 0 .244-.284.122-.27-.122-.375.106-.554.137-.404.076-.838.106-1.243.182-.06 0-.134.183-.104.259ZM223.148 185.728c-.09-.106-.269-.137-.419-.182-.12-.031-.224.045-.209.152.015.152.134.35.089.441-.389.64-.269 1.37-.419 1.888-.045.974.15 1.75.464 2.511.135.35.524.548.898.517a1.754 1.754 0 0 0 1.497-2.359c-.404-1.126-1.077-2.1-1.901-2.968ZM154.521 44.58c-.464.015-.554.334-.584.715.419.076.434.091.374.441-.015.152-.06.32-.06.487 0 .411.225.655.659.746.165.046.314.091.479.122.224.03.389-.092.539-.274.164-.213.299-.442.314-.73.015-.23.06-.457.24-.58.404-.304.449-.851.853-1.156.209-.182.194-.548.045-.746-.225-.304-.449-.608-.689-.898-.045-.06-.194-.076-.284-.045-.494.121-.614.228-.644.76-.015.442-.224.716-.569.914l.03-.046c-.015.016-.015 0-.03.016v.015a1.09 1.09 0 0 1-.673.258ZM162.283 41.353h-.025l.037.013-.012-.013ZM160.313 42.312c.015 0 .03-.015.059-.015l.03.076-.074-.046s-.015 0-.015-.015c-.18.061-.375.122-.539.198-.09.046-.18.167-.18.259-.015.076.075.182.15.243.404.259.958.122 1.362.426.09.076.314 0 .464-.045.105-.016.254-.076.269-.137.06-.228.165-.411.315-.548a86.26 86.26 0 0 0-2.635-.776c.135.121.389.121.569.213.075.03.15.106.225.167ZM125.9 140.589c.225.624.225 1.264.239 1.918.03.959.494 1.157 1.348.624.194-.122.329-.289.344-.517.03-.32.015-.64.015-.975h.03c-.015-.213-.015-.426-.03-.639 0-.167 0-.335-.015-.487-.06-.533-.599-1.172-1.242-.7-.165.122-.36.228-.539.35a.402.402 0 0 0-.15.426Z" fill="#A1B6A5"/><path d="M152.303 45.444c.419.106.824.198 1.243.259.314.045.284-.229.344-.426a.976.976 0 0 1-.15-.198c-.149-.29-.149-.579.03-.716.21-.167.434-.289.704-.137a.907.907 0 0 0 .718.077c-.015-.107-.015-.214-.075-.274-.344-.366-.778-.564-1.257-.655a.869.869 0 0 0-.614.091c-.509.29-.913.73-1.257 1.203-.165.258 0 .7.314.776Z" fill="#A1B6A5"/><path d="M153.886 45.28c.013.012.026.025.026.05.012-.012.012-.025.012-.038-.012 0-.025-.013-.038-.013ZM161.701 44.424c-.074.015-.149.167-.164.258-.015.396.179.731.434 1.02.12.152.419.228.584.152.194-.091.359-.274.568-.304.3-.046.449-.198.569-.472.075-.213.195-.396.24-.487.164-.35.119-.487-.135-.64-.195-.09-.389-.197-.584-.258-.09-.03-.254-.03-.299.015-.33.411-.749.594-1.213.716ZM166.699 83.395c.644-.197.913-.7 1.063-1.308a.368.368 0 0 0-.105-.29c-.329-.395-.778-.547-1.272-.532-.24.015-.524.258-.569.502-.03.167-.06.32-.09.563.045.183.09.457.18.7.119.32.464.457.793.365ZM38.393 122.705c-.044.015-.15.031-.239.076-.12.046-.105.274.03.411.075.076.165.152.224.228.285.32.57.655.973.807.39.137.809.244 1.213.35.045.015.12 0 .15-.015.074-.061.15-.122.21-.198.029-.046.014-.122-.016-.167-.614-.883-1.467-1.34-2.545-1.492ZM158.153 150.114c.3-.076.599-.229.883-.365.434-.198.539-.64.689-1.035-.045-.046-.075-.122-.105-.122-.434.061-.853.122-1.272.182-.374.061-.704.259-1.018.457-.165.107-.18.426-.045.578a.842.842 0 0 0 .868.305ZM127.213 139.127c.09-.137.195-.274.225-.426.059-.32.089-.639.119-.852a5.255 5.255 0 0 0-.045-.426c0-.061-.015-.107-.029-.168-.03-.243-.225-.38-.435-.289a3.856 3.856 0 0 0-.568.274c-.24.167-.315.426-.285.715.03.442.21.822.464 1.172.105.152.464.152.554 0ZM184.379 67.867c.419.274 1.138-.015 1.332-.502.03-.046.015-.107.015-.168-.105-.38-.374-.639-.688-.852a.4.4 0 0 0-.3-.046c-.628.122-.853.548-.613 1.188a.93.93 0 0 0 .254.38ZM146.104 148.745a.481.481 0 0 0-.165.258c-.015.077.045.244.105.259a28.57 28.57 0 0 0 1.527.396c.06.015.104.015.119.015.464-.076.884-.137 1.303-.198.045-.015.119-.076.119-.106-.03-.092-.044-.198-.104-.244-.345-.274-.749-.426-1.183-.396-.479.031-.958.031-1.422-.076a.438.438 0 0 0-.299.092ZM30.112 173.359c-.195-.061-.404-.045-.688-.076-.24.031-.554.046-.854.122-.12.03-.194.228-.27.365-.044.107.09.335.21.381.09.045.18.106.285.137.584.091 1.137 0 1.631-.366.105-.06.12-.182.045-.274-.105-.106-.224-.243-.359-.289ZM37.584 129.488c.024 0 .037.013.05.013-.013-.013-.013-.026-.013-.038h-.038v.025ZM38.57 129.002c-.42-.197-.899-.319-1.198-.715-.015-.015-.18.061-.27.107a.253.253 0 0 0-.015.152l.54.913c.164.061.343.107.508.167.24.077.374.259.45.503.209-.015.418-.015.613-.015.075-.99.135-.761-.629-1.112ZM38.579 130.156h.012c-.012-.013-.012-.013-.012-.025h-.038c.013 0 .025.012.038.025ZM98.969 67.382c.044-.03.06-.091.09-.122.014-.06.06-.121.044-.152-.12-.289-.254-.593-.389-.867-.15-.29-.629-.274-.793.015-.075.137-.105.304-.135.457-.03.274.03.547.3.684.284.153.598.183.883-.015ZM22.405 109.522c.374-.091.688-.274.898-.609.045-.076.015-.213-.015-.304-.09-.244-.284-.35-.494-.289-.15.03-.3.091-.434.137-.135.289-.255.578-.36.852v.015c.076.137.24.228.405.198ZM124.76 54.598c-.045.076-.15.167-.135.243.06.761.464 1.294 1.078 1.69.015 0 .09-.046.105-.092.03-.03.06-.091.045-.137-.18-.624-.659-1.08-.943-1.659-.015-.03-.105-.03-.15-.045ZM193.914 67.228c.074-.03.149-.137.209-.197.015-.411-.12-.746-.449-.975-.075-.045-.209-.06-.284-.015-.3.122-.404.73-.195.96.195.212.434.303.719.227ZM35.276 184.815c-.015.228.15.411.374.396a.54.54 0 0 0 .554-.472.5.5 0 0 0-.419-.579.414.414 0 0 0-.464.335l-.045.32ZM160.658 44.501c-.015-.304-.03-.32-.359-.38-.15-.03-.3-.077-.449-.092-.105 0-.21.03-.3.092a.55.55 0 0 0-.179.228c-.03.107.03.228.149.228.404.015.764.198 1.138.32V44.5ZM160.654 44.9v.081h.048v-.048c-.016-.017-.032-.016-.048-.033ZM51.47 242.803h-.025c0 .012.012.025.012.038l.012-.013v-.025ZM51.208 242.937c.059.075.132.134.205.194.015-.06.03-.119.044-.164.015-.045 0-.075 0-.119a3.953 3.953 0 0 0-.249.089ZM50.47 243.514c0-.013.012-.013.012-.013l.038-.038c-.012 0-.025 0-.038.013 0 .012-.012.012-.012.038ZM157.349 47.033a.287.287 0 0 0 .119.259c.21.182.659.106.824-.122.029-.03.059-.092.044-.122-.104-.183-.194-.396-.344-.517-.165-.153-.344.015-.524.09-.045.138-.105.275-.119.412ZM164.994 46.118c.285-.015.479-.228.464-.502-.015-.168-.224-.35-.419-.35a.448.448 0 0 0-.464.487.4.4 0 0 0 .419.365ZM159.275 45.752a.4.4 0 0 0 .135.273c.06.046.21.077.284.03.36-.166.614-.47.899-.73-.33-.015-.659-.03-.988-.03-.18 0-.345.198-.33.456ZM107.805 110.519l.08-.048c0-.017-.016-.033 0-.049-.016 0-.032.016-.048.016l-.032.081Z" fill="#A1B6A5"/><path d="M108.684 109.571c.045-.121.015-.213-.104-.258-.045-.016-.105-.031-.15-.016-.27.076-.479.244-.539.533-.03.198-.015.396-.015.594.09-.031.18-.046.255-.092.314-.152.464-.426.553-.761ZM38.378 100.512c-.12.107-.21.244-.3.365-.029.031-.044.137-.014.153.075.06.165.106.27.167.12-.076.269-.152.374-.259.06-.061.074-.198.06-.289-.03-.152-.27-.228-.39-.137ZM42.672 98.123c-.075.015-.18.03-.24.076-.09.107-.224.244-.24.38-.03.122.06.29.135.412.06.06.225.121.27.076.12-.076.18-.229.254-.32-.045-.198-.06-.35-.09-.502-.015-.046-.06-.122-.09-.122ZM192.569 58.22c.149.031.299-.09.329-.35-.045-.076-.09-.243-.195-.334-.119-.107-.434.137-.419.35 0 .167.12.274.285.334ZM36.31 178.544c-.059-.061-.209-.106-.268-.061-.075.031-.135.198-.105.259.06.137.165.258.284.349.03.031.165-.076.284-.136-.06-.137-.105-.289-.194-.411ZM36.1 176.339c-.075-.061-.135-.183-.195-.183-.224-.015-.434.076-.509.304-.03.061.045.244.12.259.24.076.524-.122.584-.38ZM20.638 169.746c.045-.016.12-.061.12-.092-.016-.091-.03-.212-.105-.273-.12-.107-.284-.091-.404 0-.075.061-.15.197-.12.258.015.076.135.122.225.167.09-.015.194-.03.284-.06ZM239.491 180.568c-.075-.046-.15 0-.179.137-.03.106-.015.213-.03.365 0 .046-.03.168 0 .259s.104.167.164.243c.045-.076.135-.167.15-.243.015-.213 0-.426-.015-.639a.312.312 0 0 0-.09-.122ZM188.843 67.731c.06.046.18.03.285.016.03 0 .044-.076.074-.137-.015-.122-.015-.29-.074-.427-.015-.076-.135-.152-.21-.152-.075 0-.18.092-.21.168a.418.418 0 0 0 .135.532ZM157.418 46.59c.012.012.012.025.012.037.013 0 .025-.012.025-.012.013-.013.013-.025.013-.025h-.05Z" fill="#A1B6A5"/><path d="M156.975 45.984c-.089.015-.224.107-.224.152.015.137.06.365.15.395.149.061.344.046.523.061-.06-.182-.105-.364-.194-.532-.03-.06-.18-.09-.255-.076ZM100.811 41.29c-.09-.107-.314.03-.329.197-.03.229.045.411.269.472.06-.137.135-.259.15-.396.015-.09-.03-.197-.09-.274ZM173.451 215.01c.09-.182.045-.38-.089-.441-.15-.045-.329.092-.344.274.045.091.09.198.164.258.105.076.21.016.269-.091ZM100.211 53.315c.09-.122.12-.274.165-.365-.075-.198-.165-.228-.284-.152a.369.369 0 0 0-.21.38c0 .046.03.122.06.137.09.015.239.03.269 0ZM141.946 144.352c-.075-.076-.195-.091-.27 0-.06.061-.12.183-.105.259.015.091.105.213.165.228.195.03.374.03.569.03 0-.106 0-.213-.015-.304-.06-.046-.135-.076-.21-.122a.344.344 0 0 1-.134-.091Z" fill="#A1B6A5"/><path d="M142.341 144.863h-.037v.038l.037-.038ZM169.084 75.752c-.075.046-.18.091-.255.152-.015 0 0 .107.03.137.135.152.269.305.434.426.06.046.18.03.27 0 .119-.015.134-.258.03-.395-.135-.168-.27-.32-.509-.32ZM36.427 179.941c-.014-.105-.087-.164-.205-.134a.174.174 0 0 0-.102.104c-.03.104.014.209.117.209.058 0 .117-.105.19-.179ZM147.609 141.693c.058-.119.029-.209-.088-.254a.14.14 0 0 0-.132.03c-.102.06-.102.164-.029.239.088.089.176.074.249-.015ZM63.033 80.052l-.045-.136c-.03-.137-.12-.183-.24-.137-.044.015-.104.06-.104.091-.015.091-.03.228.03.274.105.076.239.121.359.167v-.259ZM156.251 41.866c.044-.015.088-.075.103-.12.029-.119-.029-.208-.146-.223-.118-.015-.176.075-.191.179.029.134.117.194.234.164ZM97.785 159.8c.044.015.102.03.132 0 .073-.059.131-.134.19-.208-.059-.075-.088-.135-.147-.209-.073.059-.16.104-.22.179-.102.089-.073.193.045.238ZM18.051 164.996c0 .029.059.089.103.089.117.015.176-.045.176-.149a2.423 2.423 0 0 0-.205-.194c-.03.09-.06.179-.074.254ZM19.582 167.18s-.012-.013-.012-.026c-.013-.012-.025-.025-.038-.025 0 .013.013.025.013.051h.037ZM19.884 167.492c.044-.03.073-.059.088-.104.03-.104-.015-.179-.146-.194-.074-.015-.161 0-.235 0 .015.09.015.179.059.254.044.119.146.134.234.044ZM61.357 75.837c.014-.09-.044-.18-.074-.269-.073.045-.175.06-.22.135-.073.089-.043.193.06.238.102.06.219.015.234-.104ZM38.18 180.764c-.014.119.044.194.162.209.044 0 .073-.06.117-.09.014-.119-.03-.194-.147-.194-.044 0-.132.045-.132.075ZM239.076 182.546c-.103.119-.059.373.073.343.029 0 .088-.06.088-.089a.868.868 0 0 0-.059-.269s-.073 0-.102.015ZM99.638 58.41c.015-.015-.044-.074-.058-.119-.059.06-.118.104-.176.164 0 .015.044.075.058.104.059-.044.118-.09.176-.149ZM101.852 40.99c-.029.075-.102.15-.102.239 0 .074.073.149.117.238.044-.09.102-.179.102-.253 0-.075-.073-.15-.117-.224ZM189.061 65.745c.059 0 .147-.09.22-.15.029-.014.015-.088.015-.133-.029-.045-.073-.105-.088-.105-.088.045-.191.075-.234.15-.074.104-.03.223.087.238ZM129.951 86.96c.03.014.103-.03.132-.06.088-.09.161-.194.249-.298-.132.03-.249.06-.366.119-.103.044-.117.149-.015.238ZM130.435 86.588c0-.015.014-.03.014-.045h-.059c-.015.015-.029.045-.044.06.029 0 .059-.015.089-.015ZM154.068 93.313c.073.06.132.134.19.194.044-.015.117-.045.117-.075.015-.104-.058-.179-.175-.194-.044 0-.088.045-.132.075ZM119.527 142.54c.059-.015.147-.149.147-.209-.015-.074-.132-.119-.191-.179-.176.015-.322.209-.234.298.058.075.19.105.278.09ZM151.25 148.003c.044-.015.118-.015.147-.045.059-.075.102-.164.161-.254-.059-.044-.146-.134-.205-.134-.176.015-.264.164-.22.328.015.045.074.06.117.105ZM196.731 60.482v.119l.133-.051-.133-.068ZM191.424 61.196c.044-.03.103-.06.117-.09.044-.12 0-.209-.117-.238-.029-.015-.088.044-.102.089-.044.104 0 .194.102.239ZM120.819 141.821c-.016-.047-.016-.094-.031-.11-.046-.031-.108-.047-.139-.031-.124.063-.109.141.031.189.046 0 .093-.032.139-.048ZM195.896 62.111c-.109-.063-.156-.047-.156.064.015.016.078.032.125.032.015 0 .015-.064.031-.096ZM96.256 62.387v.547c.254-.289.254-.334 0-.547ZM190.319 66.494c.105.03.165-.015.15-.106 0-.03-.075-.03-.105-.046-.03.015-.075.03-.105.06 0 .016.03.092.06.092ZM100.984 42.338c.015-.015-.015-.104-.044-.134-.044-.045-.102-.105-.161-.15.015.075.029.135.029.21.03.148.088.178.176.074ZM100.785 42.054v-.08c-.016 0-.016-.017-.032-.017 0 .016-.016.032-.016.049l.048.048ZM177.089 80.567l.147-.05-.13-.066-.017.116ZM160.955 45.248c.089-.015.179-.076.269-.121-.09-.046-.165-.122-.254-.137-.09-.03-.18-.016-.269-.016v.305c.089 0 .179 0 .254-.03ZM160.595 45.322h.104v-.046c-.015 0-.03-.015-.059 0-.015 0-.03.03-.045.046ZM132.513 46.847c.117.06.205 0 .22-.135 0-.03-.073-.089-.117-.089-.088 0-.161 0-.249.015.044.075.088.164.146.209ZM132.363 46.631c0-.015-.015-.03-.015-.03l-.087-.074.044.104h.058ZM111.936 108.136c-.03-.153-.09-.153-.135 0 0 .015.045.076.06.107.03-.031.06-.061.075-.107ZM35.774 177.631c-.03.122.015.198.105.168.03 0 .045-.077.06-.107-.03-.046-.045-.092-.075-.107-.015-.015-.09.031-.09.046ZM142.371 145.228c-.016-.016-.032-.033-.048-.033l-.032.033c.016.016.048.016.08.016v-.016Z" fill="#A1B6A5"/><path d="M142.021 145.374s.093.063.124.048c.047-.063.093-.126.155-.189-.124 0-.233-.032-.279.141ZM62.143 74.474a.784.784 0 0 0-.234.149c.073.045.146.12.234.134.074.015.161 0 .25 0v-.298c-.089 0-.176 0-.25.015ZM148.159 146.401v-.09l-.104.045.104.045ZM18.424 166.569c.03-.046.075-.077.075-.107.015-.046-.03-.092-.045-.122-.03.03-.075.061-.075.091-.015.046.03.092.045.138ZM128.472 136.845c.046.015.093.047.108.031.062-.047.124-.11.171-.157-.109 0-.217 0-.279.126ZM138.501 54.363c.03.09.059.179.103.268.029-.03.088-.06.103-.09.058-.118.014-.208-.088-.268-.044.03-.118.075-.118.09ZM108.788 114.112h.037c-.013-.012-.013-.025-.025-.038 0 .013-.012.026-.012.038ZM108.532 114.106c-.044 0-.103.074-.103.119.029.119.132.194.235.119.058-.044.087-.149.117-.223-.088-.015-.176-.03-.249-.015ZM35.338 182.414c.123.078.184.062.169-.062 0-.016-.077-.047-.123-.031-.015 0-.03.062-.046.093ZM239.019 184.357c0 .015.074.075.103.075.029 0 .102-.06.102-.06a1.041 1.041 0 0 0-.102-.224c-.029.075-.073.135-.103.209ZM51.116 198.908c-.12-.243-.344-.304-.583-.289.09.289.329.32.583.289ZM175.706 216.502c-.033 0-.098.017-.098.033a.3.3 0 0 0 .033.116.126.126 0 0 0 .081-.033c0-.033-.016-.083-.016-.116ZM110.559 117.207c-.015-.03-.03-.076-.06-.092-.045-.015-.105-.015-.135.016-.075.076-.045.137.09.152.03 0 .075-.045.105-.076ZM172.115 82.095l-.131.18h.205c.146-.03.161-.105.058-.18-.029-.03-.102-.015-.132 0ZM171.96 82.33c0-.016.016-.032.032-.049h-.08l.048.05ZM135.64 81.699c-.015.015.03.076.045.107l.09-.092c-.03-.152-.09-.168-.135-.015ZM60.066 72.582c-.044.075 0 .15.073.194v-.268c-.03.03-.059.044-.073.074ZM138.776 80.031c0-.012.013-.025.013-.05-.013.012-.026.012-.051.025.013 0 .013.013.013.025h.025ZM138.833 79.906c-.016.033-.016.065-.031.081.079-.016.111-.048.031-.08ZM148.118 140.922l-.05.051c.05.016.099.016.133.033a8.013 8.013 0 0 1-.083-.084ZM134.059 148.355l.095.016-.032-.098-.063.082ZM19.46 167.086c.032.016.048.032.08.048-.017-.08-.032-.096-.08-.048ZM33.541 173.89l.087.014-.029-.103-.058.089ZM117.953 143.46l.133-.051-.117-.067-.016.118ZM162.842 43.148l-.133-.017.05.118.083-.101ZM179.98 217.232l.048.049c.016 0 .032 0 .032-.016h.016l-.096-.033ZM138.502 48.808c-.013 0-.013.025-.013.05.05-.037.075-.063.013-.05ZM138.49 48.873l-.064.032v.017c.016.016.032.016.048.032 0-.032 0-.065.016-.081ZM48.572 85.295c.014.09.014.164.014.253.103-.12.103-.149-.014-.253ZM195.03 62.147l-.096.032.096.065v-.097ZM136.569 111.62c.045.091.12.182.179.243.09.092.27-.03.405-.182.374-.457.374-.974.284-1.507-.254 0-.494.03-.689.259-.209.258-.329.547-.269.882.015.107.045.213.09.305ZM138.144 105.276c.045 0 .105-.015.135-.045a.365.365 0 0 0 .105-.427c-.06-.121-.195-.213-.285-.304-.089.03-.149.03-.179.061-.135.122-.165.274-.12.441.045.168.18.244.344.274ZM133.059 115.574c.029.015.059-.045.103-.074-.059-.09-.074-.194-.132-.254-.088-.089-.191-.074-.234.03a.27.27 0 0 0 .029.239c.044.059.146.059.234.059ZM141.421 108.012c.149.091.254-.031.344-.167 0-.046.03-.092.03-.152-.015-.107-.24-.198-.389-.122-.06.046-.15.152-.135.213 0 .091.075.197.15.228ZM137.523 110.119l-.08.033v.032h.032l.048-.065ZM141.023 109.463l-.065.132.098-.082c-.017-.017-.017-.034-.033-.05Z" fill="#A1B6A5"/><mask id="b" style="mask-type:luminance" maskUnits="userSpaceOnUse" x="14" y="0" width="40" height="50"><path d="M14.878 0h38.32v49.008h-38.32V0Z" fill="#fff"/></mask><g mask="url(#b)"><path d="M24.112 30.836c2.365 6.94 6.601 12.115 10.882 16.087.45.426.898.822 1.347 1.218-.479-2.755-.718-6.53.045-11.035.569-3.896 2.006-8.264 4.536-12.587a26.1 26.1 0 0 0-.345-1.278c-.18-.578-.329-1.142-.509-1.674-.18-.533-.359-1.05-.538-1.538a88.729 88.729 0 0 0-.554-1.4c-.18-.456-.374-.867-.554-1.248-.09-.198-.18-.38-.255-.563-.09-.183-.18-.35-.269-.517-.165-.32-.33-.624-.464-.898-.3-.533-.569-.944-.733-1.233l-.255-.426c.09-.03.195-.076.3-.107.014-.06 3.846 6.073 4.64 8.736.12.29.224.563.329.853a39.693 39.693 0 0 1 8.352-9.376C44.47 6.53 36.251 2.846 29.471 1.598c-6.78-1.354-12.155-.29-12.244-.457-.06.26 1.107 3.942 2.215 9.452 1.257 5.677 2.44 13.272 4.67 20.243Z" fill="#A1B6A5"/></g><mask id="c" style="mask-type:luminance" maskUnits="userSpaceOnUse" x="0" y="6" width="111" height="255"><path d="M0 6.145h110.677v253.93H0V6.145Z" fill="#fff"/></mask><g mask="url(#c)"><path d="M58.347 259.71a.815.815 0 0 0-.254-1.08C25.028 235.571 2.799 196.882 3.099 152.379c-.015-39.024 17.782-74.395 45.489-97.971 2.08-.153 4.505-.396 7.035-.761 7.634-1.066 16.166-3.212 24.144-8.386 7.874-5.297 15.118-11.918 20.866-16.545 5.479-4.58 9.535-7.23 9.685-7.549-.255.168-5.523-6.453-14.909-10.319-9.205-4.048-22.557-5.357-35.13.928-12.59 6.515-18.547 18.265-19.819 27.077-.988 5.89-.3 10.593.39 13.363-.12.35 5.298-14.109 27.945-28.142 2.98-2.192 11.855-5.631 11.826-5.555.074.122.15.228.224.35 0 0-.21.076-.614.244-.404.167-1.003.38-1.736.715-.36.167-.763.35-1.213.563-.224.107-.448.213-.688.32-.224.137-.464.258-.718.395-.495.26-1.033.533-1.572.853-.524.32-1.093.67-1.692 1.035-.568.365-1.182.76-1.796 1.172-.614.426-1.227.882-1.87 1.354-.644.457-1.273.959-1.932 1.477-.658.502-1.287 1.065-1.96 1.613-.66.548-1.303 1.141-1.977 1.72-.643.609-1.302 1.217-1.96 1.841a116.002 116.002 0 0 0-3.832 3.881c-.629.67-1.258 1.34-1.856 2.025a75.62 75.62 0 0 0-1.797 2.04 150.35 150.35 0 0 0-3.353 4.048 157.392 157.392 0 0 0-2.993 3.896c-.614.822-8.487 10.867-9.55 11.948C13.726 84.072.016 118.134.3 152.379c-.12 43.864 22.407 84.075 56.895 107.605a.81.81 0 0 0 1.152-.274Z" fill="#A1B6A5"/></g></svg>