<svg width="40" height="40" fill="none" xmlns="http://www.w3.org/2000/svg"><path fill-rule="evenodd" clip-rule="evenodd" d="M12.318 5.21a16.768 16.768 0 0 0-7.366 7.626 54.068 54.068 0 0 1 5.997-1.357 53.936 53.936 0 0 1 1.37-6.268ZM3.791 16.114a16.668 16.668 0 0 0-.458 3.888c0 1.49.197 2.935.565 4.31 2.2.72 4.447 1.287 6.72 1.702a54.988 54.988 0 0 1-.046-11.629 51.153 51.153 0 0 0-6.781 1.729Zm1.385 11.505a16.771 16.771 0 0 0 7.151 7.177 54.082 54.082 0 0 1-1.308-5.872 53.91 53.91 0 0 1-5.843-1.305Zm10.468 8.473c1.389.376 2.85.576 4.356.576a16.64 16.64 0 0 0 4.506-.618 51.252 51.252 0 0 0 1.638-6.734c-4.055.457-8.158.46-12.212.011a51.367 51.367 0 0 0 1.712 6.764Zm12.155-1.362a16.773 16.773 0 0 0 7.027-7.116 54.06 54.06 0 0 1-5.782 1.296 54.017 54.017 0 0 1-1.245 5.82Zm8.304-10.421c.368-1.375.564-2.818.564-4.307 0-1.338-.159-2.64-.457-3.886a51.137 51.137 0 0 0-6.836-1.74c.427 3.862.442 7.766.046 11.63 2.26-.416 4.495-.981 6.683-1.697Zm-1.055-11.472a16.768 16.768 0 0 0-7.514-7.701 54.063 54.063 0 0 1 1.44 6.33c2.047.34 4.077.797 6.074 1.371Zm-10.823-8.96c.012.067.029.134.05.2a51.342 51.342 0 0 1 1.786 6.986 54.984 54.984 0 0 0-12.212.011 51.215 51.215 0 0 1 1.773-7.156A16.646 16.646 0 0 1 20 3.334c1.46 0 2.875.188 4.225.542Zm2.276 10.058c.519 4.151.538 8.36.056 12.513-4.332.547-8.732.55-13.066.008a52.394 52.394 0 0 1-.056-12.514 52.427 52.427 0 0 1 13.066-.007Z" fill="#25A3D8"/><path fill-rule="evenodd" clip-rule="evenodd" d="M8.667 32.19a16.601 16.601 0 0 0 11.095 4.238c9.194 0 16.667-7.473 16.667-16.666a16.6 16.6 0 0 0-4.238-11.096c3.418 3.054 5.571 7.493 5.571 12.429 0 9.194-7.473 16.667-16.666 16.667-4.936 0-9.376-2.154-12.43-5.571Z" fill="#0077A9"/></svg>