<svg width="40" height="40" fill="none" xmlns="http://www.w3.org/2000/svg"><path fill-rule="evenodd" clip-rule="evenodd" d="M18.682 35.933a2.72 2.72 0 0 0 1.318.325c.465 0 .915-.093 1.287-.31 2.837-1.566 7.953-3.256 11.147-3.674l.512-.062c2.046-.248 3.72-2.14 3.72-4.217V9.28c0-1.224-.48-2.34-1.364-3.147-.868-.806-2.03-1.21-3.163-1.1h-.186c-3.167.272-7.805 1.776-10.79 3.447v25.312c0 .651-.528 1.163-1.163 1.163a1.171 1.171 0 0 1-1.163-1.163V8.473c-2.98-1.694-7.702-3.208-10.9-3.455a4.192 4.192 0 0 0-3.24 1.085c-.883.806-1.364 1.923-1.364 3.147v18.73c0 2.061 1.675 3.968 3.706 4.216l.45.062c3.193.419 8.294 2.093 11.193 3.675ZM13.411 16.35H9.922a1.171 1.171 0 0 1-1.162-1.163c0-.635.527-1.162 1.162-1.162h3.489c.636 0 1.163.527 1.163 1.162 0 .636-.527 1.163-1.163 1.163Zm-3.489 4.651h4.652c.635 0 1.162-.527 1.162-1.162 0-.636-.527-1.163-1.162-1.163H9.922c-.635 0-1.162.527-1.162 1.163 0 .635.527 1.162 1.162 1.162Z" fill="#25A3D8"/><path fill-rule="evenodd" clip-rule="evenodd" d="M17.989 35.605c.387.217.852.325 1.317.325.465 0 .915-.093 1.287-.31 2.837-1.566 7.954-3.256 11.148-3.674l.511-.062c2.047-.248 3.721-2.14 3.721-4.217V8.954c0-1.044-.349-2.009-.999-2.77a4.21 4.21 0 0 1 1.662.95C37.519 7.942 38 9.058 38 10.283v18.713c0 2.078-1.674 3.97-3.72 4.217l-.513.062c-3.193.419-8.31 2.109-11.147 3.675-.372.217-.822.31-1.287.31-.465 0-.93-.109-1.317-.326-2.9-1.581-8-3.256-11.194-3.674l-.45-.062c-1.027-.126-1.963-.676-2.637-1.455.198.058.402.1.61.126l.45.062c3.194.419 8.294 2.093 11.194 3.675Z" fill="#0077A9"/></svg>