<svg width="40" height="40" fill="none" xmlns="http://www.w3.org/2000/svg"><g filter="url(#a)"><path d="M33.728 23.172c-1.28 4.687-4.373 9.274-9.56 11.896-1.311.662-2.711 1.181-4.168 1.6-1.457-.419-2.857-.938-4.167-1.6-5.188-2.622-8.282-7.209-9.561-11.896-.997-3.649-1.325-7.923-1.265-11.895.007-.5.33-.932.792-1.083 2.249-.734 8.91-3.091 13.483-6.614a1.173 1.173 0 0 1 1.436 0c4.575 3.524 11.237 5.88 13.484 6.614.462.151.784.582.791 1.081.06 3.972-.268 8.248-1.265 11.897Z" fill="#25A3D8"/></g><path d="M29.63 20.258c0 .891-.288 1.783-.862 2.518a4.079 4.079 0 0 0-.84 2.085v.002c-.197 1.875-1.635 3.357-3.457 3.56h-.001a3.84 3.84 0 0 0-2.025.864 3.822 3.822 0 0 1-2.445.887 3.822 3.822 0 0 1-2.445-.887 3.82 3.82 0 0 0-2.025-.864h-.002c-1.821-.203-3.26-1.685-3.457-3.56v-.002a4.079 4.079 0 0 0-.839-2.085 4.084 4.084 0 0 1-.861-2.518c0-.891.287-1.783.861-2.518.234-.299.424-.63.565-.98.141-.352.234-.724.274-1.105v-.002c.197-1.876 1.636-3.357 3.457-3.56h.002a3.84 3.84 0 0 0 2.025-.864A3.822 3.822 0 0 1 20 10.342c.865 0 1.73.295 2.445.887a3.87 3.87 0 0 0 2.025.864h.002c1.82.203 3.26 1.684 3.456 3.56v.002c.08.763.372 1.487.84 2.085.574.735.861 1.627.861 2.518Z" fill="#fff"/><path d="M20.124 23.426a1.093 1.093 0 0 1-1.578 0l-2.232-2.298a1.173 1.173 0 0 1 0-1.625l.026-.027a1.093 1.093 0 0 1 1.578 0l1.417 1.458 2.746-2.828a1.093 1.093 0 0 1 1.579 0l.026.027a1.174 1.174 0 0 1 0 1.625l-3.562 3.668Z" fill="#25A3D8"/><defs><filter id="a" x="5" y="3.334" width="32" height="35.334" filterUnits="userSpaceOnUse" color-interpolation-filters="sRGB"><feFlood flood-opacity="0" result="BackgroundImageFix"/><feColorMatrix in="SourceAlpha" values="0 0 0 0 0 0 0 0 0 0 0 0 0 0 0 0 0 0 127 0" result="hardAlpha"/><feOffset dx="2" dy="2"/><feComposite in2="hardAlpha" operator="out"/><feColorMatrix values="0 0 0 0 0 0 0 0 0 0.465378 0 0 0 0 0.661133 0 0 0 1 0"/><feBlend in2="BackgroundImageFix" result="effect1_dropShadow_178_1844"/><feBlend in="SourceGraphic" in2="effect1_dropShadow_178_1844" result="shape"/></filter></defs></svg>