<svg width="25" height="14" fill="none" xmlns="http://www.w3.org/2000/svg"><path fill-rule="evenodd" clip-rule="evenodd" d="M5.352 12.361c-1.129-1.067-2.246-2.457-2.87-4.32-.422-1.348-.703-2.783-.95-4.05-.096-.492-.188-.96-.28-1.388A36.065 36.065 0 0 0 .771.525C.702.253.662.09.667.065c.006.01.085.003.226-.01.47-.043 1.627-.148 3.003.132 1.788.336 3.955 1.325 5.43 3.291a10.6 10.6 0 0 0-2.202 2.518 5.425 5.425 0 0 0-.086-.229c-.21-.715-1.22-2.362-1.224-2.346a.658.658 0 0 0-.05.018l-.029.01a18.674 18.674 0 0 0 .132.225c.037.062.082.136.129.221.022.047.048.097.075.15l.047.091c.024.045.047.09.071.14.013.033.029.066.044.1l.023.05.002.006c.047.1.098.21.144.33a12.287 12.287 0 0 1 .288.789c.029.086.055.176.08.267L6.825 6c.032.11.064.225.091.344-.667 1.16-1.046 2.334-1.196 3.38a8.924 8.924 0 0 0-.012 2.964 12.739 12.739 0 0 1-.355-.327Zm2.803 1.615c.79.021 1.696.046 2.09-.012 2.013-.286 4.263-.862 6.366-2.252 1.487-1.019 2.889-2.22 4.121-3.276.489-.42.95-.815 1.381-1.168a41.466 41.466 0 0 1 2.094-1.661c.28-.21.445-.334.46-.367-.015.01-.093-.067-.232-.205-.496-.493-1.766-1.755-3.7-2.566-2.427-1.088-5.947-1.44-9.263.25-3.319 1.749-4.89 4.905-5.225 7.272-.26 1.582-.08 2.845.102 3.589 0 .004 0 .001.004-.007.084-.204 1.628-3.93 7.365-7.552.786-.588 3.126-1.512 3.118-1.492l.03.047.03.047s-.056.02-.163.066l-.111.045c-.095.038-.212.084-.346.147a24.365 24.365 0 0 1-.32.151l-.181.086a2.42 2.42 0 0 1-.143.08 7.735 7.735 0 0 0-.047.026l-.06.032c-.113.06-.234.124-.354.197l-.209.13-.237.148c-.15.098-.312.204-.474.315a18.31 18.31 0 0 0-.401.295l-.092.069c-.149.107-.294.223-.444.343-.022.018-.043.036-.066.053a9.426 9.426 0 0 0-.317.264 13.303 13.303 0 0 0-.502.437c-.073.065-.145.13-.219.194a60.217 60.217 0 0 1-.517.495A30.963 30.963 0 0 0 9.72 10.33a40.11 40.11 0 0 0-.884 1.087c-.28.36-.545.712-.79 1.047l-.073.1c-.242.333-.831 1.142-1.08 1.4.224-.017.715-.003 1.262.012Z" fill="#FAB549"/></svg>