<svg width="90" height="90" fill="none" xmlns="http://www.w3.org/2000/svg"><rect width="90" height="90" rx="45" fill="#E2E8E3"/><path fill-rule="evenodd" clip-rule="evenodd" d="M29.762 56.489c-2.352-2.287-4.68-5.265-5.978-9.26-.882-2.887-1.466-5.96-1.981-8.675-.2-1.057-.391-2.06-.585-2.975-.375-1.958-.764-3.514-.998-4.454-.145-.584-.231-.93-.219-.986.012.022.177.006.47-.02.98-.093 3.39-.317 6.256.283 3.725.718 8.24 2.838 11.315 7.051a22.537 22.537 0 0 0-4.589 5.396 11.939 11.939 0 0 0-.18-.49c-.436-1.533-2.541-5.063-2.55-5.028a.997.997 0 0 0-.104.038 1.59 1.59 0 0 1-.06.023l.14.245c.036.068.082.146.135.237.078.133.17.29.268.473.047.1.1.208.157.32l.098.197c.049.096.098.192.148.297.028.072.06.143.092.217.016.035.032.071.047.108l.005.01c.098.216.203.45.3.708.098.254.197.517.304.806.099.28.197.578.296.885.06.185.113.376.168.572.036.129.072.26.111.391.066.237.132.482.19.736-1.39 2.488-2.18 5.002-2.492 7.244-.42 2.593-.288 4.766-.024 6.351a25.13 25.13 0 0 1-.74-.7Zm5.838 3.46c1.645.045 3.534.098 4.355-.026 4.193-.613 8.88-1.848 13.263-4.827 3.097-2.182 6.017-4.756 8.585-7.02 1.018-.897 1.98-1.745 2.877-2.502a86.546 86.546 0 0 1 4.362-3.559c.582-.449.927-.715.958-.785-.03.02-.193-.145-.483-.441-1.033-1.056-3.68-3.76-7.707-5.499-5.057-2.33-12.391-3.083-19.298.535-6.916 3.749-10.188 10.512-10.887 15.584-.543 3.39-.165 6.096.214 7.69-.003.009 0 .004.006-.014.177-.438 3.394-8.423 15.345-16.182 1.637-1.262 6.513-3.241 6.496-3.198.02.035.041.068.062.101l.062.1s-.116.045-.338.141a6.89 6.89 0 0 1-.233.097c-.197.081-.44.181-.72.315l-.222.107c-.138.067-.286.138-.444.217-.124.061-.247.123-.379.184a4.81 4.81 0 0 1-.296.172l-.098.056-.126.068c-.236.13-.487.266-.738.422l-.433.278-.496.318c-.312.21-.65.438-.987.674-.275.2-.55.413-.835.632l-.192.148c-.31.23-.612.479-.924.737l-.137.113c-.224.178-.442.37-.662.566-.137.12-.274.242-.415.362-.212.185-.421.379-.632.574-.15.139-.3.278-.454.416l-.513.505-.564.555a65.312 65.312 0 0 0-4.111 4.573 85.829 85.829 0 0 0-1.842 2.33 90.012 90.012 0 0 0-1.645 2.242l-.153.216c-.504.713-1.731 2.447-2.25 3 .468-.037 1.49-.008 2.63.024Z" fill="#A1B6A5"/></svg>