<svg width="60" height="61" fill="none" xmlns="http://www.w3.org/2000/svg"><rect y=".334" width="60" height="60" rx="12" fill="#BBE2F3"/><path d="M30 48.251c-9.883 0-17.917-8.033-17.917-17.916 0-9.884 8.034-17.917 17.917-17.917 9.883 0 17.917 8.033 17.917 17.917a1.26 1.26 0 0 1-1.25 1.25c-.684 0-1.25-.567-1.25-1.25 0-8.5-6.917-15.417-15.417-15.417s-15.417 6.917-15.417 15.417S21.5 45.75 30 45.75c.683 0 1.25.567 1.25 1.25a1.26 1.26 0 0 1-1.25 1.25Z" fill="#25A3D8"/><path d="M25 46.584h-1.666a1.26 1.26 0 0 1-1.25-1.25c0-.683.533-1.233 1.216-1.25a49.15 49.15 0 0 1 0-27.5 1.253 1.253 0 0 1-1.216-1.25c0-.683.566-1.25 1.25-1.25H25c.4 0 .784.2 1.017.517.233.333.3.75.167 1.133-3.134 9.417-3.134 19.8 0 29.217.133.383.066.8-.167 1.133-.233.333-.617.5-1.017.5ZM37.433 31.583c-.683 0-1.25-.566-1.25-1.25 0-4.966-.8-9.883-2.366-14.6a1.255 1.255 0 0 1 .783-1.583 1.255 1.255 0 0 1 1.583.784 48.78 48.78 0 0 1 2.5 15.4 1.26 1.26 0 0 1-1.25 1.25Z" fill="#25A3D8"/><path d="M30 39.017a48.56 48.56 0 0 1-13.75-1.984A1.253 1.253 0 0 1 15 38.25 1.26 1.26 0 0 1 13.75 37v-1.667c0-.4.2-.783.517-1.016.316-.234.75-.3 1.133-.167A46.263 46.263 0 0 0 30 36.517c.683 0 1.25.566 1.25 1.25a1.26 1.26 0 0 1-1.25 1.25ZM45 26.585a1.12 1.12 0 0 1-.4-.067c-9.416-3.133-19.8-3.133-29.217 0a1.255 1.255 0 0 1-1.583-.783 1.255 1.255 0 0 1 .784-1.583c9.933-3.317 20.866-3.317 30.783 0 .65.216 1 .933.783 1.583-.133.517-.633.85-1.15.85ZM36.367 48.25a2.343 2.343 0 0 1-1.667-.667c-.517-.517-.75-1.267-.633-2.05l.316-2.25c.084-.583.434-1.283.85-1.7l5.9-5.9c.8-.8 1.584-1.216 2.434-1.3 1.05-.1 2.066.334 3.033 1.3.967.967 1.4 1.984 1.3 3.034-.083.833-.517 1.633-1.3 2.433l-5.9 5.9c-.417.417-1.1.767-1.683.85l-2.25.317c-.15.016-.267.033-.4.033Zm7.483-11.383h-.05c-.233.016-.55.216-.9.583l-5.9 5.9a.634.634 0 0 0-.133.283l-.3 2.084 2.083-.3a.925.925 0 0 0 .284-.15l5.9-5.9c.35-.35.566-.667.583-.9.033-.334-.3-.734-.584-1.017-.266-.267-.65-.584-.983-.584Z" fill="#25A3D8"/><path d="M44.867 42.367c-.117 0-.233-.016-.333-.05a6.629 6.629 0 0 1-4.567-4.566 1.24 1.24 0 0 1 .867-1.533c.666-.184 1.35.2 1.55.866a4.11 4.11 0 0 0 2.833 2.834c.667.183 1.05.883.867 1.533a1.28 1.28 0 0 1-1.217.916Z" fill="#25A3D8"/></svg>