<svg width="60" height="60" fill="none" xmlns="http://www.w3.org/2000/svg"><rect width="60" height="60" rx="12" fill="#FDCFC7"/><path d="M21.467 41.5a1.26 1.26 0 0 1-1.25-1.25V36.8c0-.683.566-1.25 1.25-1.25.683 0 1.25.567 1.25 1.25v3.45c0 .7-.567 1.25-1.25 1.25ZM30 41.5a1.26 1.26 0 0 1-1.25-1.25v-6.916c0-.683.567-1.25 1.25-1.25s1.25.567 1.25 1.25v6.917c0 .7-.567 1.25-1.25 1.25ZM38.533 41.5a1.26 1.26 0 0 1-1.25-1.25V29.882c0-.683.567-1.25 1.25-1.25.684 0 1.25.567 1.25 1.25v10.366c0 .7-.55 1.25-1.25 1.25ZM21.467 31.966a1.262 1.262 0 0 1-1.217-.95 1.247 1.247 0 0 1 .917-1.516c6.133-1.534 11.533-4.884 15.65-9.667l.767-.9a1.26 1.26 0 0 1 1.766-.133 1.26 1.26 0 0 1 .133 1.766l-.766.9a32.522 32.522 0 0 1-16.95 10.467c-.1.033-.2.033-.3.033Z" fill="#FA6F49"/><path d="M38.533 25.867a1.26 1.26 0 0 1-1.25-1.25V21H33.65a1.26 1.26 0 0 1-1.25-1.25c0-.683.567-1.25 1.25-1.25h4.883c.684 0 1.25.567 1.25 1.25v4.883c0 .684-.55 1.234-1.25 1.234Z" fill="#FA6F49"/><path d="M35 47.917H25c-9.05 0-12.917-3.866-12.917-12.916V25c0-9.05 3.867-12.917 12.917-12.917h10c9.05 0 12.917 3.867 12.917 12.917v10c0 9.05-3.867 12.916-12.917 12.916ZM25 14.584c-7.683 0-10.417 2.733-10.417 10.417v10c0 7.683 2.734 10.416 10.417 10.416h10c7.683 0 10.417-2.733 10.417-10.416V25c0-7.684-2.734-10.417-10.417-10.417H25Z" fill="#FA6F49"/></svg>