<svg width="60" height="60" fill="none" xmlns="http://www.w3.org/2000/svg"><rect width="60" height="60" rx="12" fill="#FDE8C7"/><path d="M39.367 26.033h-8.75a1.26 1.26 0 0 1-1.25-1.25c0-.683.566-1.25 1.25-1.25h8.75c.683 0 1.25.567 1.25 1.25s-.55 1.25-1.25 1.25ZM21.867 27.3c-.317 0-.634-.116-.884-.366l-1.25-1.25a1.258 1.258 0 0 1 0-1.767 1.258 1.258 0 0 1 1.767 0l.367.367 2.866-2.867a1.258 1.258 0 0 1 1.767 0 1.258 1.258 0 0 1 0 1.767l-3.75 3.75c-.233.233-.55.366-.883.366ZM39.367 37.7h-8.75a1.26 1.26 0 0 1-1.25-1.25c0-.684.566-1.25 1.25-1.25h8.75c.683 0 1.25.566 1.25 1.25 0 .683-.55 1.25-1.25 1.25ZM21.867 38.967c-.317 0-.634-.117-.884-.367l-1.25-1.25a1.258 1.258 0 0 1 0-1.767 1.258 1.258 0 0 1 1.767 0l.367.367 2.866-2.867a1.258 1.258 0 0 1 1.767 0 1.258 1.258 0 0 1 0 1.767l-3.75 3.75c-.233.233-.55.367-.883.367Z" fill="#FAB549"/><path d="M35 47.917H25c-9.05 0-12.917-3.866-12.917-12.916V25c0-9.05 3.867-12.917 12.917-12.917h10c9.05 0 12.917 3.867 12.917 12.917v10c0 9.05-3.867 12.916-12.917 12.916ZM25 14.584c-7.683 0-10.417 2.733-10.417 10.417v10c0 7.683 2.734 10.416 10.417 10.416h10c7.683 0 10.417-2.733 10.417-10.416V25c0-7.684-2.734-10.417-10.417-10.417H25Z" fill="#FAB549"/></svg>