<svg width="60" height="61" fill="none" xmlns="http://www.w3.org/2000/svg"><rect y=".666" width="60" height="60" rx="12" fill="#C7D2FD"/><path fill-rule="evenodd" clip-rule="evenodd" d="M35.748 16.303c-1.975-1.203-3.566-1.29-4.584-.684-.626.373-1.138 1.068-1.432 2.088a1.237 1.237 0 0 1-.069.262c-.144.602-.216 1.306-.2 2.112.049 2.311.846 5.163 2.441 7.963 2.165 3.799 5.084 6.264 7.448 6.948 1.124.325 2.021.225 2.695-.176 1.03-.613 1.75-2.096 1.7-4.462-.047-2.31-.845-5.162-2.44-7.962-1.596-2.801-3.626-4.912-5.559-6.09Zm-8.413.703c.427-1.488 1.242-2.756 2.55-3.535 2.18-1.297 4.843-.717 7.163.696 2.363 1.44 4.669 3.893 6.431 6.987 1.763 3.094 2.71 6.35 2.768 9.148.057 2.745-.755 5.373-2.921 6.663-1.354.805-2.916.883-4.438.491l-9.653.792 2.822 5.19a3.133 3.133 0 0 1-5.44 3.108l-4.112-6.86c-.84.17-1.65.2-2.418.067-1.86-.32-3.227-1.54-4.027-3.359-.761-1.728-.905-3.408-.117-4.949.71-1.387 2.067-2.439 3.803-3.308l7.589-11.131ZM20.113 30.78c-1.052.622-1.65 1.227-1.944 1.803-.34.666-.386 1.52.179 2.803.525 1.193 1.272 1.749 2.163 1.902.579.1 1.304.045 2.176-.231l.055-.018c.26-.084.533-.188.818-.313l-3.447-5.946Zm4.808 8.073 3.84 6.407a.634.634 0 0 0 1.1-.629l-3.365-6.189-.84.038c-.247.133-.491.258-.735.373Zm2.22-2.942 7.616-.625c-1.87-1.475-3.626-3.551-5.025-6.005-1.424-2.5-2.315-5.104-2.636-7.488l-5.028 7.375 3.939 6.794 1.134-.051Zm8.724-12.684c-.683-.237-1.556-.227-2.581.351a1.25 1.25 0 0 1-1.229-2.177c1.602-.904 3.218-1.026 4.63-.536 1.382.48 2.462 1.509 3.115 2.724 1.312 2.44 1.022 5.932-2.234 7.812a1.25 1.25 0 1 1-1.25-2.165c1.875-1.083 2.076-2.987 1.283-4.462-.4-.742-1.022-1.3-1.734-1.547Z" fill="#6C49FA"/></svg>